<svg width="168" height="60" viewBox="0 0 168 60" fill="none" xmlns="http://www.w3.org/2000/svg">
<path d="M4.88683 59.9199C5.44952 59.616 5.9466 59.1283 6.57456 59.0083C8.77982 58.5872 11.0327 58.439 13.2743 58.319C13.5336 58.3052 13.7368 58.6006 13.9961 58.6109C16.2282 58.6984 18.4648 58.6942 20.6966 58.6109C20.9495 58.6013 21.151 58.3497 21.4035 58.3342C21.5404 58.3257 21.6195 58.5537 21.7563 58.5452C22.0089 58.5297 22.2135 58.3095 22.4633 58.2689C22.6983 58.2307 22.9459 58.2551 23.1766 58.3151C23.31 58.35 23.3823 58.5417 23.5203 58.5452C23.6571 58.5491 23.7362 58.331 23.873 58.3342C24.0099 58.337 24.0851 58.5184 24.2153 58.5604C24.3377 58.5999 24.4731 58.584 24.6008 58.5692C27.1776 58.2682 29.7409 57.8418 32.3251 57.6135C32.475 57.6004 32.5572 57.8651 32.7071 57.8535C34.9085 57.683 37.0877 57.2891 39.2852 57.0742C42.7231 56.7382 46.1617 56.3831 49.6112 56.2014C49.8705 56.1879 50.0776 56.4491 50.3334 56.4929C50.5683 56.5328 50.816 56.5066 51.0467 56.4463C51.1801 56.4117 51.2524 56.2172 51.3903 56.2165C51.5272 56.2158 51.6024 56.4008 51.7325 56.4428C51.8549 56.4823 51.9904 56.4661 52.1181 56.4519C53.754 56.2681 55.3775 55.9617 57.0201 55.8488C57.1637 55.8389 57.2339 56.0881 57.3778 56.0902C57.6279 56.0937 57.8431 55.8636 58.0933 55.8636C58.2372 55.8632 58.3173 56.0983 58.4609 56.0895C62.3373 55.8562 66.196 55.3709 70.0728 55.1425C70.2164 55.1341 70.294 55.3381 70.4302 55.384C70.552 55.4253 70.6878 55.4055 70.8159 55.3931C72.8016 55.204 74.7767 54.8881 76.7685 54.7804C77.0295 54.7663 77.2504 55.042 77.5116 55.0314C80.0941 54.9265 82.6606 54.5538 85.2425 54.4363C85.3864 54.43 85.4665 54.6629 85.6105 54.6629C85.7476 54.6629 85.8166 54.4363 85.9537 54.4363C86.2037 54.4363 86.4188 54.6594 86.6689 54.6629C86.8059 54.665 86.8846 54.4518 87.0217 54.4518C87.1587 54.4518 87.2374 54.6668 87.3745 54.6629C87.5122 54.6594 87.5848 54.4684 87.718 54.4328C87.9488 54.3714 88.1939 54.382 88.4327 54.3813C92.901 54.3664 97.3702 54.2923 101.837 54.3862C102.089 54.3915 102.283 54.6696 102.535 54.6784C102.791 54.6872 103.009 54.4271 103.265 54.4363C106.317 54.5454 109.356 54.9131 112.407 55.0314C112.551 55.037 112.631 54.8048 112.775 54.8048C112.912 54.8048 112.987 54.9901 113.118 55.0314C113.236 55.0688 113.37 55.0635 113.49 55.0314C113.732 54.9661 113.935 54.7374 114.186 54.7448C114.557 54.7554 114.877 55.0423 115.246 55.0815C115.947 55.1556 116.659 55.1503 117.36 55.0815C117.612 55.0568 117.814 54.8168 118.067 54.8048C118.204 54.7981 118.279 54.9901 118.41 55.0314C118.528 55.0688 118.664 55.0705 118.782 55.0314C118.919 54.9858 118.996 54.7854 119.14 54.7889C124.513 54.9191 129.882 55.1729 135.25 55.4309C136.458 55.4888 137.657 55.7171 138.866 55.7365C139.017 55.739 139.098 55.4874 139.249 55.4955C141.362 55.6067 143.456 55.9737 145.569 56.0898C145.713 56.0976 145.793 55.8664 145.937 55.8636C146.074 55.8604 146.153 56.0775 146.29 56.0747C146.434 56.0718 146.514 55.8392 146.657 55.8488C148.419 55.9638 150.158 56.3323 151.919 56.4424C152.07 56.4519 152.152 56.1908 152.302 56.2017C155.195 56.4184 158.084 56.7198 160.959 57.1186C162.077 57.2739 163.146 57.6992 164.263 57.8616C164.854 57.947 165.464 57.9417 166.055 57.858C166.274 57.827 166.506 57.7095 166.63 57.5263C167.031 56.9369 167.559 56.3238 167.582 55.6112C167.677 52.6737 167.08 49.7521 166.974 46.815C166.96 46.4423 167.222 46.0974 167.225 45.7244C167.226 45.5871 167.029 45.5207 166.983 45.3916C166.941 45.2702 166.963 45.1339 166.974 45.0058C167.18 42.5677 167.367 40.1279 167.633 37.6958C167.701 37.0742 168.006 36.476 167.976 35.8517C167.888 34.0739 167.472 32.3272 167.281 30.5576C167.255 30.3162 167.265 30.0652 167.327 29.8302C167.482 29.2401 167.819 28.7008 167.927 28.1001C167.952 27.9596 167.706 27.877 167.704 27.7341C167.702 27.5971 167.915 27.5184 167.915 27.3811C167.915 27.2439 167.7 27.1652 167.704 27.0282C167.708 26.8902 167.899 26.8179 167.934 26.6845C167.994 26.4536 168.022 26.2055 167.98 25.9708C167.937 25.722 167.745 25.518 167.685 25.2727C167.628 25.0405 167.634 24.7966 167.634 24.5576C167.634 24.2012 167.614 23.8387 167.685 23.4897C167.714 23.3502 167.959 23.2737 167.924 23.1357C167.825 22.7524 167.411 22.4944 167.331 22.1065C167.28 21.858 167.562 21.635 167.562 21.3812C167.562 21.2432 167.367 21.1709 167.332 21.0374C167.272 20.8066 167.248 20.5592 167.286 20.3238C167.327 20.0739 167.616 19.8636 167.562 19.6162C167.498 19.3208 167.134 19.1803 166.98 18.9198C166.918 18.815 166.933 18.6788 166.933 18.5563C166.933 18.083 166.904 17.6041 166.98 17.1368C167.02 16.8872 167.231 16.6875 167.275 16.4387C167.316 16.204 167.289 15.9555 167.228 15.725C167.194 15.5916 167.002 15.5193 166.999 15.3813C166.995 15.2443 167.209 15.1656 167.209 15.0283C167.21 14.8914 167.006 14.8127 166.999 14.6761C166.994 14.5649 167.21 14.5017 167.179 14.3948C167.11 14.1597 166.813 14.0376 166.743 13.8029C166.702 13.6635 166.942 13.5202 166.881 13.3886C166.76 13.1292 166.352 13.0596 166.269 12.7858C166.207 12.5803 166.554 12.4025 166.517 12.1911C166.198 10.4115 165.555 8.70156 165.221 6.92487C165.195 6.78369 165.459 6.71098 165.461 6.56734C165.464 6.31746 165.236 6.10217 165.235 5.85194C165.234 5.7097 165.496 5.62359 165.456 5.487C165.243 4.75218 164.693 4.13666 164.521 3.39125C164.463 3.14067 164.777 2.92996 164.806 2.67408C164.858 2.20362 164.899 1.70668 164.758 1.25457C164.674 0.982804 164.397 0.808452 164.172 0.633748C163.887 0.412103 163.582 0.200341 163.242 0.0771659C163.015 -0.00542159 162.753 -0.0248311 162.519 0.0341096C162.23 0.106815 162.016 0.372221 161.73 0.457279C160.831 0.7241 159.922 1.00645 158.987 1.08233C157.348 1.21574 155.695 1.1628 154.052 1.08198C153.799 1.06963 153.598 0.816572 153.345 0.805278C153.208 0.799278 153.135 1.00045 153.002 1.03504C152.771 1.09539 152.523 1.12257 152.288 1.08162C152.04 1.03857 151.843 0.801394 151.591 0.789747C151.341 0.778453 151.126 1.0128 150.876 1.01633C150.739 1.01845 150.66 0.805278 150.523 0.805278C150.386 0.805278 150.307 1.0248 150.17 1.01633C149.918 1.0008 149.713 0.780573 149.463 0.739985C149.228 0.701868 148.98 0.726217 148.75 0.786569C148.617 0.821157 148.544 1.01563 148.406 1.01633C148.269 1.01704 148.194 0.83104 148.063 0.789747C147.945 0.752335 147.809 0.752335 147.691 0.789747C147.56 0.83104 147.485 1.01704 147.348 1.01633C147.21 1.01563 147.138 0.82116 147.004 0.786219C146.774 0.72622 146.526 0.701868 146.291 0.739985C146.041 0.780573 145.837 1.00433 145.584 1.01633C145.448 1.02304 145.372 0.831749 145.242 0.790102C145.119 0.750573 144.983 0.76151 144.856 0.781981C144.324 0.867745 143.807 1.04139 143.272 1.10739C141.23 1.3601 139.186 1.61491 137.132 1.73738C136.982 1.74621 136.9 1.48645 136.749 1.49633C133.225 1.72362 129.721 2.21562 126.196 2.44326C126.045 2.45279 125.964 2.19232 125.813 2.2022C124.054 2.31514 122.318 2.69702 120.559 2.80537C120.304 2.8209 120.086 2.57209 119.831 2.56997C119.694 2.56891 119.618 2.75526 119.488 2.79655C119.369 2.83396 119.234 2.83396 119.115 2.79655C118.985 2.75526 118.909 2.56926 118.772 2.56997C118.635 2.57067 118.562 2.76443 118.429 2.80008C118.198 2.86149 117.953 2.85126 117.714 2.85161C109.365 2.8682 101.015 2.8682 92.6662 2.85161C92.4273 2.85126 92.1823 2.86149 91.9514 2.80008C91.8182 2.76443 91.7456 2.5735 91.6079 2.56997C91.4709 2.56609 91.3919 2.78879 91.2551 2.78102C91.0035 2.7669 90.8015 2.50997 90.5495 2.50997C90.2976 2.50997 90.0959 2.78208 89.844 2.78102C89.5909 2.77996 89.3901 2.50997 89.1371 2.50432C85.1403 2.41573 81.1414 2.48456 77.1436 2.49938C76.9047 2.50009 76.6597 2.4895 76.4289 2.55091C76.2957 2.58656 76.2231 2.77749 76.0853 2.78102C75.9483 2.7849 75.8695 2.56679 75.7325 2.56997C75.5955 2.57279 75.52 2.75526 75.3893 2.79655C75.2711 2.83396 75.1346 2.83679 75.0173 2.79655C74.8877 2.75208 74.814 2.59997 74.6846 2.55479C74.5632 2.51244 74.4272 2.53573 74.299 2.54561C71.7258 2.73726 69.1603 3.04784 66.5823 3.15831C66.329 3.16925 66.1177 2.91196 65.8641 2.90737C65.6139 2.90314 65.3991 3.13043 65.149 3.13396C65.0121 3.13608 64.9331 2.92291 64.7962 2.92291C64.659 2.92291 64.5803 3.14243 64.4434 3.13396C64.1908 3.11843 63.9887 2.87914 63.7364 2.85726C62.9172 2.78596 62.0889 2.78596 61.2694 2.85726C61.0178 2.87914 60.815 3.1089 60.5635 3.13361C60.4527 3.1442 60.3849 2.9109 60.2823 2.95361C60.0646 3.04396 60.0149 3.40396 59.7852 3.4562C59.5637 3.50631 59.3763 3.23102 59.1502 3.2102C58.4482 3.14631 57.7398 3.19361 57.0349 3.20526C56.7961 3.20914 56.5509 3.19537 56.3202 3.25678C56.1868 3.29243 56.1141 3.49219 55.9765 3.4869C55.7247 3.47702 55.5229 3.21584 55.271 3.21584C55.0191 3.21584 54.8173 3.4869 54.5654 3.4869C54.3139 3.4869 54.1124 3.20455 53.8609 3.21549C51.2721 3.32808 48.7014 3.72337 46.1137 3.85501C45.9698 3.86242 45.8897 3.62278 45.7458 3.62878C45.4939 3.63902 45.2921 3.89983 45.0402 3.89983C44.7883 3.89983 44.5862 3.6429 44.3346 3.62878C44.1977 3.62102 44.1187 3.83984 43.9818 3.83984C43.8446 3.83984 43.7659 3.6249 43.629 3.62878C43.4911 3.63231 43.4188 3.82396 43.2854 3.85854C43.0547 3.9189 42.8067 3.94607 42.5721 3.90513C42.3237 3.86207 42.1262 3.6249 41.8746 3.61325C41.6249 3.60196 41.4093 3.8476 41.1595 3.83984C40.9077 3.83207 40.7059 3.56878 40.454 3.56878C40.2021 3.56878 39.9999 3.82572 39.7484 3.83984C39.6115 3.8476 39.5325 3.62102 39.3956 3.62878C39.1441 3.6429 38.9419 3.90901 38.69 3.89983C38.3196 3.88607 37.9961 3.62349 37.6303 3.56349C37.3953 3.52502 37.1484 3.55396 36.9169 3.61007C36.6714 3.66937 36.47 3.87584 36.2191 3.90548C35.7492 3.96054 35.2677 3.93195 34.8002 3.85889C34.6641 3.83737 34.5946 3.62949 34.4566 3.62878C34.3194 3.62808 34.2442 3.81407 34.1133 3.85537C33.9952 3.89278 33.8586 3.8956 33.7415 3.85537C33.6117 3.81054 33.5376 3.65807 33.4078 3.61325C33.2907 3.57301 33.1538 3.57478 33.0359 3.61325C32.9001 3.65772 32.8204 3.87619 32.6796 3.85183C32.0785 3.74807 31.5535 3.3429 30.9503 3.25325C30.6984 3.21584 30.4775 3.4816 30.2232 3.4869C30.0863 3.48972 30.0073 3.27267 29.8704 3.27584C29.7332 3.27867 29.658 3.46114 29.5271 3.50243C29.409 3.53984 29.2735 3.53984 29.1553 3.50243C29.0244 3.46114 28.9489 3.27867 28.812 3.27584C28.6752 3.27267 28.5961 3.4869 28.4593 3.4869C28.322 3.4869 28.2437 3.27584 28.1065 3.27584C27.9692 3.27584 27.8906 3.49078 27.7537 3.4869C27.6157 3.48337 27.5434 3.29173 27.4101 3.25678C27.1794 3.19679 26.9317 3.17243 26.6967 3.21055C26.447 3.25114 26.2424 3.4749 25.9898 3.4869C25.8529 3.4936 25.7837 3.25819 25.6465 3.26031C25.3981 3.26384 25.1896 3.49961 24.9409 3.50243C24.6908 3.5049 24.476 3.27937 24.2258 3.27584C24.089 3.27373 24.0099 3.48866 23.873 3.4869C23.7316 3.48549 23.6469 3.23208 23.51 3.26737C23.1262 3.36655 22.8627 3.78125 22.4721 3.84831C22.2195 3.89172 22.0125 3.57019 21.7563 3.56878C21.5044 3.56737 21.3027 3.82995 21.0508 3.83984C20.9132 3.84513 20.8423 3.63655 20.7071 3.60972C20.3579 3.54125 19.9938 3.5176 19.6407 3.56313C19.3898 3.5956 19.187 3.83984 18.934 3.83984C18.6811 3.83984 18.479 3.58784 18.2271 3.56313C17.5261 3.49431 16.8163 3.50843 16.1142 3.56278C12.4707 3.84443 8.8412 4.29089 5.19763 4.57006C5.01171 4.58453 4.81522 4.53301 4.65294 4.44089C4.44656 4.32407 4.35659 4.01948 4.12622 3.96337C3.66019 3.84901 3.14443 3.81548 2.68686 3.95948C2.05008 4.1596 1.45775 4.52489 0.952208 4.96112C0.577197 5.28512 0.348242 5.7517 0.1087 6.18582C0.0483741 6.29523 0.0395539 6.43746 0.070599 6.55852C0.155268 6.8871 0.257223 7.22345 0.447727 7.50404C0.554268 7.66074 0.745475 7.75074 0.923279 7.81498C1.62215 8.06768 2.31714 8.44991 3.0601 8.4485C4.25534 8.44603 5.39695 7.90851 6.58761 7.80368C6.83844 7.78145 7.04059 8.0645 7.29212 8.07509C7.429 8.08109 7.49815 7.84851 7.63538 7.84851C7.8855 7.84851 8.10035 8.07509 8.35048 8.07509C8.48736 8.07509 8.56285 7.8898 8.69374 7.84851C8.81192 7.81109 8.94598 7.81639 9.06558 7.84851C9.30759 7.9138 9.51044 8.15133 9.76057 8.13545C11.4127 8.03203 13.0348 7.62015 14.6858 7.49627C14.8361 7.48498 14.9179 7.74404 15.0686 7.73768C17.7681 7.62474 20.4528 7.26051 23.1523 7.14263C23.2962 7.13663 23.3763 7.37592 23.5203 7.36922C23.7729 7.35757 23.9743 7.10204 24.2269 7.09251C26.459 7.00922 28.6956 7.00922 30.9273 7.09251C31.1803 7.10204 31.3817 7.35722 31.6343 7.36922C31.7712 7.37592 31.8467 7.18392 31.9776 7.14263C32.0958 7.10522 32.2298 7.11016 32.3494 7.14263C32.5925 7.20933 32.7946 7.42886 33.0465 7.43486C36.9258 7.52839 40.8082 7.53545 44.6874 7.44016C45.5186 7.41969 46.3293 7.16593 47.1569 7.08757C47.3947 7.06499 47.6416 7.07557 47.8716 7.1391C48.0113 7.17793 48.0858 7.39075 48.2304 7.38475C50.8125 7.27322 53.3793 6.90263 55.9614 6.78969C56.105 6.78369 56.1826 6.98557 56.3187 7.03145C56.4405 7.07275 56.5763 7.05087 56.7043 7.04063C59.0451 6.85287 61.3777 6.55676 63.7227 6.43711C63.8666 6.4297 63.9467 6.66052 64.0906 6.66334C64.2275 6.66652 64.3065 6.44911 64.4434 6.45229C64.5803 6.45511 64.6554 6.63652 64.7856 6.67852C64.908 6.7184 65.0428 6.6944 65.1712 6.68805C69.281 6.47946 73.3851 6.13358 77.4989 6.03335C82.3176 5.91547 87.14 5.94582 91.9594 6.0337C92.2124 6.03829 92.4135 6.29911 92.6662 6.3104C92.8039 6.3164 92.8765 6.11523 93.0098 6.08064C93.2404 6.02029 93.488 5.99594 93.7233 6.03405C93.973 6.07464 94.1776 6.29487 94.4301 6.3104C94.5669 6.31887 94.6459 6.09617 94.783 6.09935C94.92 6.10217 94.9892 6.33229 95.1261 6.32593C95.4952 6.30899 95.8267 6.05911 96.1953 6.0337C97.2503 5.96099 98.313 5.95852 99.3679 6.0337C99.6203 6.0517 99.822 6.2984 100.075 6.3104C100.212 6.31711 100.281 6.08382 100.418 6.08382C100.668 6.08382 100.883 6.31111 101.133 6.3104C101.271 6.31005 101.341 6.10746 101.477 6.08029C101.826 6.01076 102.188 6.02876 102.544 6.02876C102.783 6.02876 103.028 6.01888 103.259 6.08029C103.392 6.11594 103.465 6.3157 103.603 6.3104C103.854 6.30052 104.056 6.03653 104.308 6.03935C104.567 6.04217 104.77 6.33228 105.029 6.32628C113.822 6.12581 122.613 5.81841 131.399 5.42206C134.835 5.26712 138.253 4.83654 141.688 4.67242C141.832 4.66571 141.902 4.91206 142.046 4.91418C142.296 4.91771 142.512 4.69112 142.762 4.6876C142.899 4.68548 142.978 4.89865 143.115 4.89865C143.251 4.89865 143.33 4.67912 143.467 4.6876C143.72 4.70312 143.922 4.93712 144.174 4.9643C144.645 5.01512 145.126 4.99112 145.593 4.91771C145.729 4.89618 145.799 4.69112 145.937 4.6876C146.074 4.68371 146.153 4.89865 146.29 4.89865C146.427 4.89865 146.506 4.67912 146.642 4.6876C146.895 4.70312 147.096 4.95759 147.349 4.9643C150.64 5.05183 153.934 4.98371 157.226 4.96924C157.465 4.96818 157.71 4.97912 157.941 4.91771C158.074 4.88206 158.146 4.69112 158.284 4.6876C158.421 4.68371 158.5 4.90253 158.637 4.89865C158.775 4.89512 158.845 4.69007 158.981 4.66854C159.448 4.59513 159.929 4.57042 160.4 4.62195C160.623 4.6463 160.905 4.69713 161.018 4.89159C161.442 5.62041 161.725 6.43323 161.928 7.25169C161.963 7.38969 161.693 7.46451 161.691 7.6071C161.689 7.85698 161.917 8.07227 161.918 8.3225C161.918 8.46474 161.663 8.54909 161.696 8.68744C162.269 11.0549 163.121 13.3487 163.705 15.7134C163.792 16.066 163.759 16.444 163.7 16.8022C163.678 16.9384 163.465 17.0083 163.471 17.146C163.481 17.3979 163.745 17.5998 163.742 17.8518C163.737 18.2252 163.412 18.5609 163.448 18.9325C163.517 19.6515 163.938 20.3009 164.047 21.0145C164.069 21.156 163.826 21.2379 163.823 21.3812C163.821 21.5181 164.038 21.5972 164.034 21.7341C164.032 21.8711 163.849 21.9466 163.808 22.0775C163.771 22.1958 163.749 22.3405 163.808 22.4496C163.952 22.715 164.287 22.8607 164.387 23.1455C164.433 23.2751 164.168 23.3619 164.176 23.4988C164.192 23.7515 164.42 23.9552 164.453 24.2058C164.5 24.5629 164.466 24.9296 164.412 25.2854C164.234 26.4621 163.862 27.6098 163.757 28.7954C163.643 30.0832 163.668 31.3842 163.758 32.6738C163.784 33.0447 164.067 33.3649 164.1 33.7351C164.183 34.6714 164.168 35.6177 164.1 36.5551C164.036 37.4455 163.801 38.3162 163.704 39.2039C163.468 41.372 163.217 43.5411 163.103 45.7188C163.095 45.8627 163.344 45.933 163.344 46.077C163.344 46.4454 163.093 46.7871 163.102 47.1552C163.109 47.4061 163.386 47.6006 163.389 47.8516C163.392 48.1035 163.132 48.3058 163.118 48.5574C163.11 48.6944 163.329 48.7731 163.329 48.9104C163.329 49.0477 163.11 49.1264 163.118 49.2633C163.132 49.5149 163.389 49.7172 163.389 49.9692C163.389 50.2212 163.117 50.4231 163.118 50.6751C163.119 50.9281 163.362 51.1311 163.394 51.382C163.455 51.8479 163.434 52.3233 163.394 52.7913C163.38 52.9579 163.38 53.1869 163.233 53.2663C163.021 53.3814 162.744 53.3235 162.509 53.2699C162.374 53.2388 162.312 53.0253 162.175 53.0246C161.918 53.0235 161.7 53.2868 161.445 53.2653C160.266 53.1675 159.124 52.7846 157.946 52.6727C157.803 52.6593 157.722 52.8986 157.579 52.8982C157.442 52.8982 157.366 52.7129 157.236 52.6716C157.117 52.6342 156.981 52.6314 156.864 52.6716C156.734 52.7161 156.66 52.8682 156.531 52.9134C156.409 52.9557 156.272 52.9402 156.145 52.9222C154.861 52.7419 153.594 52.4309 152.302 52.3197C152.158 52.3074 152.088 52.559 151.944 52.5608C151.694 52.5643 151.479 52.3335 151.229 52.3342C151.091 52.3346 151.018 52.529 150.885 52.564C150.655 52.6243 150.41 52.6272 150.173 52.6109C147.47 52.4274 144.777 52.0946 142.071 51.9658C141.921 51.9587 141.839 52.2174 141.689 52.2072C140.044 52.0978 138.424 51.7279 136.779 51.6135C136.636 51.6033 136.556 51.8405 136.412 51.8394C136.274 51.8387 136.203 51.6386 136.068 51.6096C135.832 51.5588 135.58 51.5588 135.344 51.6096C135.209 51.6386 135.138 51.8394 135.001 51.8394C134.863 51.8394 134.793 51.6308 134.657 51.6093C134.189 51.5359 133.708 51.5091 133.238 51.5627C132.98 51.5923 132.775 51.8705 132.516 51.8539C131.106 51.7646 129.729 51.3516 128.32 51.2514C128.059 51.2327 127.838 51.5119 127.577 51.502C124.877 51.3965 122.193 51.0199 119.493 50.9069C119.349 50.9009 119.279 51.1469 119.135 51.149C118.885 51.1526 118.67 50.9225 118.42 50.9225C118.276 50.9225 118.195 51.1561 118.052 51.1487C115.704 51.0319 113.374 50.6662 111.026 50.5543C110.882 50.5473 110.812 50.7961 110.668 50.7961C110.3 50.7961 109.958 50.5448 109.59 50.554C109.34 50.5604 109.145 50.8378 108.894 50.8406C108.642 50.8434 108.44 50.5836 108.189 50.5695C108.052 50.5618 107.973 50.7891 107.836 50.7806C107.584 50.7651 107.379 50.5448 107.129 50.5042C106.894 50.4661 106.646 50.4905 106.416 50.5505C106.282 50.5854 106.21 50.7771 106.072 50.7806C105.935 50.7845 105.856 50.5695 105.719 50.5695C105.582 50.5695 105.503 50.7891 105.366 50.7806C105.114 50.7651 104.913 50.5074 104.66 50.5039C98.3106 50.4135 91.9562 50.2759 85.6104 50.4989C78.66 50.7432 71.7372 51.5101 64.7937 51.9054C63.5036 51.9788 62.2067 51.9802 60.9166 51.905C60.5486 51.8835 60.2174 51.628 59.8487 51.6163C59.7503 51.6135 59.7905 51.8602 59.6921 51.8673C52.2712 52.3896 44.8359 52.6868 37.414 53.1964C32.9005 53.5063 28.4046 54.0594 23.8879 54.3248C23.6289 54.34 23.4232 54.0686 23.1661 54.0333C22.8136 53.9849 22.4489 54.0114 22.0999 54.0798C21.9645 54.1067 21.8943 54.3086 21.7563 54.31C21.6138 54.3117 21.5306 54.0583 21.3916 54.0883C20.9022 54.1935 20.511 54.6325 20.0132 54.6848C19.5281 54.7353 19.066 54.4384 18.5813 54.3816C18.3438 54.3537 18.0972 54.3717 17.8665 54.4328C17.7332 54.4684 17.6605 54.6689 17.5229 54.6629C17.2703 54.652 17.0657 54.4271 16.8159 54.3865C16.5806 54.3484 16.333 54.3728 16.1026 54.4328C15.9692 54.4677 15.8969 54.6622 15.759 54.6629C15.6217 54.6636 15.5466 54.4776 15.4157 54.4363C15.2979 54.3989 15.1628 54.4007 15.0446 54.4367C14.9377 54.4691 14.8802 54.6618 14.7726 54.6322C14.5369 54.5669 14.4219 54.239 14.1806 54.1974C13.8825 54.1455 13.5929 54.3933 13.2909 54.3753C12.9183 54.3527 12.5807 54.0241 12.2117 54.0788C11.8205 54.1363 11.5619 54.5443 11.1925 54.6848C11.0038 54.7564 10.7752 54.7695 10.5875 54.6961C10.3349 54.5973 10.1874 54.3191 9.94578 54.1967C9.78314 54.1144 9.57782 54.0322 9.40848 54.0989C9.12696 54.2094 9.00031 54.5877 8.71244 54.6813C8.37165 54.7924 7.95113 54.8486 7.63645 54.6767C7.46746 54.5842 7.83859 54.1028 7.64632 54.0989C7.34469 54.0933 7.23673 54.7116 6.93934 54.6629C6.56186 54.6015 6.29903 54.1938 6.12828 53.8515C6.06407 53.7237 6.37629 53.626 6.35125 53.4855C6.24329 52.8845 5.89438 52.3487 5.75151 51.755C5.694 51.5165 5.70212 51.2581 5.7568 51.0188C5.78891 50.878 6.01327 50.8042 6.00093 50.6602C5.89086 49.3678 5.48903 48.1092 5.39872 46.815C5.37226 46.4387 5.70846 46.0865 5.65555 45.7131C5.58499 45.2183 5.18423 44.8233 5.04629 44.3426C4.97891 44.1072 4.99902 43.8468 5.05123 43.6071C5.08051 43.4723 5.27737 43.4014 5.28089 43.2634C5.28478 43.1264 5.06745 43.0474 5.06992 42.9104C5.07204 42.7675 5.31723 42.6852 5.29289 42.5444C5.18846 41.9416 4.80957 41.4087 4.70514 40.8058C4.6808 40.665 4.92599 40.5828 4.92811 40.4399C4.93058 40.3029 4.71431 40.2239 4.71714 40.0869C4.7196 39.9436 4.96021 39.8621 4.94151 39.7199C4.81592 38.7666 4.36083 37.8676 4.29874 36.908C4.25993 36.3105 4.59754 35.7426 4.64587 35.1458C4.7122 34.3256 4.71361 33.4965 4.64093 32.6763C4.61835 32.4243 4.36541 32.2224 4.36435 31.9693C4.36329 31.7173 4.63529 31.5155 4.63529 31.2635C4.63529 31.0115 4.37846 30.8092 4.36435 30.5576C4.35659 30.4207 4.5785 30.3416 4.57532 30.2047C4.5725 30.0677 4.39081 29.9925 4.34918 29.8619C4.30967 29.7398 4.31426 29.6025 4.34177 29.4772C4.43808 29.0407 4.6367 28.6298 4.71714 28.1901C5.4287 24.2887 6.10712 20.3806 6.71638 16.462C6.77247 16.103 6.77 15.7303 6.71073 15.3721C6.6698 15.124 6.42039 14.927 6.4211 14.6754C6.42215 14.302 6.75165 13.966 6.71531 13.5943C6.61477 12.5634 6.52482 11.47 6.01998 10.5658C5.72646 10.0403 5.0283 9.87684 4.48959 9.60861C4.37247 9.55037 4.21795 9.55814 4.09729 9.60861C3.76779 9.74555 3.43089 9.90437 3.17653 10.155C2.86784 10.4599 2.63394 10.8421 2.44908 11.2346C2.19896 11.764 1.98058 12.3202 1.88286 12.8976C1.85922 13.0385 2.15169 13.1285 2.10582 13.2636C2.00916 13.5506 1.60345 13.6685 1.52372 13.9603C1.39777 14.4202 1.39355 14.932 1.52337 15.3904C1.60663 15.6834 2.03491 15.7871 2.12417 16.078C2.26352 16.5301 2.25293 17.0305 2.17179 17.4964C2.03561 18.2785 1.82041 19.0578 1.47998 19.7746C1.42953 19.8809 1.17482 19.4824 1.1727 19.6003C1.16705 19.9719 1.42353 20.3072 1.46586 20.6764C1.50643 21.03 1.49162 21.395 1.41894 21.7433C1.39072 21.8785 1.17482 21.9392 1.17376 22.0775C1.172 22.3324 1.45423 22.5537 1.41048 22.805C1.33922 23.2147 1.12719 23.6086 0.853073 23.922C0.783221 24.0018 0.691145 23.7671 0.587073 23.7469C0.539095 23.7378 0.470654 23.8034 0.483707 23.8504C0.521456 23.9834 0.69291 24.0589 0.713371 24.1955C0.777578 24.6229 0.861196 25.0804 0.729607 25.4922C0.641763 25.7672 0.19372 25.819 0.106935 26.0947C0.0444918 26.2934 0.313312 26.4632 0.360586 26.6661C0.414915 26.8983 0.446319 27.1447 0.40716 27.3797C0.346128 27.7464 0.08648 28.0701 0.0653128 28.441C-0.0281754 30.0847 -0.0151223 31.7357 0.0653128 33.3797C0.0776603 33.6327 0.341896 33.8339 0.341896 34.087C0.341896 34.34 0.0871855 34.5419 0.0653128 34.7939C-0.00594987 35.6138 -0.00594987 36.4425 0.0653128 37.262C0.0871855 37.5144 0.329901 37.7166 0.341896 37.9693C0.348951 38.1129 0.103763 38.1938 0.116463 38.337C0.581787 43.6293 1.33357 48.8945 1.76785 54.1896C1.78937 54.4483 1.50644 54.6537 1.47646 54.9114C1.42142 55.3857 1.40942 55.8781 1.51843 56.3429C1.73681 57.2736 1.98481 58.2198 2.44873 59.0556C2.6798 59.472 3.11726 59.7561 3.53672 59.981C3.65984 60.0466 3.81754 59.9273 3.93466 59.8514C4.11141 59.7371 4.18901 59.4081 4.39928 59.4233" fill="#212121"/>
</svg>
