<svg width="48" height="57" viewBox="0 0 48 57" fill="none" xmlns="http://www.w3.org/2000/svg">
<path d="M7.38251 56.0361C7.61004 55.8594 7.98766 55.7858 8.06559 55.5063C8.56731 53.7046 8.6611 51.8093 9.06806 49.9832C9.09115 49.8785 9.23739 49.765 9.33456 49.8084C10.44 50.3012 11.5247 50.8578 12.5349 51.5288C13.0116 51.8453 13.2098 52.5729 13.7543 52.7433C16.5405 53.6135 19.3962 54.4988 22.3108 54.5835C24.7631 54.6546 27.2105 53.9709 29.543 53.201C31.5299 52.5456 33.4244 51.5517 35.1435 50.3484C36.4679 49.4217 37.4818 48.103 38.5593 46.8919C38.8979 46.5116 39.0573 45.9955 39.3733 45.5957C39.7024 45.1793 40.1454 44.8662 40.4835 44.4571C40.9989 43.8338 41.4945 43.1901 41.9284 42.5064C42.6558 41.3596 43.3431 40.1845 43.9619 38.9749C44.5591 37.8067 45.3405 36.6759 45.5715 35.3821C45.8874 33.612 45.7565 31.7747 45.5663 29.9865C45.5342 29.6841 45.2207 29.4139 44.9289 29.3413C44.2979 29.1835 43.5809 29.092 42.9795 29.3413C42.3656 29.5955 41.9562 30.2115 41.5492 30.7418C41.4557 30.8636 41.4634 31.0769 41.5492 31.2044C41.859 31.6646 42.4277 31.9266 42.6799 32.4214C42.8332 32.7218 42.8157 33.124 42.6869 33.4362C41.7518 35.7025 40.8785 38.0346 39.523 40.0715C37.8579 42.5736 35.9094 44.9144 33.7004 46.9397C32.4685 48.0694 30.8271 48.6353 29.3471 49.4013C28.9511 49.6058 28.5157 49.7256 28.0868 49.8444C26.9686 50.1546 25.8626 50.5636 24.7096 50.6883C23.4257 50.8276 22.1106 50.8407 20.8362 50.6299C20.05 50.4999 19.2866 50.1497 18.6363 49.6837C18.0995 49.2985 17.9244 48.5135 17.3746 48.1473C16.7454 47.7286 15.8473 47.8591 15.2335 47.4174C14.7087 47.0395 14.4355 46.386 14.1295 45.8123C14.0569 45.677 14.0607 45.4875 14.13 45.3507C14.2378 45.1389 14.4326 44.9787 14.624 44.8409C15.0132 44.5613 15.4158 44.2877 15.8584 44.1085C17.2875 43.5309 18.7843 43.137 20.2209 42.5784C20.5862 42.4362 20.9785 42.2935 21.2523 42.0106C21.5934 41.6581 21.873 41.2149 22.0008 40.7387C22.1302 40.2561 22.1569 39.7112 21.9956 39.2388C21.8689 38.8673 21.5028 38.6233 21.1964 38.3823C20.8073 38.0765 20.3957 37.7716 19.9284 37.6143C19.607 37.5057 19.2299 37.4936 18.9122 37.6124C17.377 38.187 15.9839 39.1127 14.4417 39.6679C12.9722 40.1967 11.3549 40.2537 9.91179 40.8517C9.3966 41.065 9.22296 41.791 8.72268 42.0374C7.776 42.5034 6.4772 42.222 5.69022 42.93C4.88256 43.6556 5.00908 45.0381 4.38951 45.9331C3.66555 46.9791 2.51779 47.6604 1.72649 48.6548C1.05159 49.5026 0.270382 50.3674 0.0168761 51.4256C-0.0990537 51.9106 0.407961 52.3679 0.753345 52.7233C1.11653 53.0973 1.57112 53.4367 2.07765 53.5468C2.41582 53.6208 2.72368 53.2765 3.06617 53.2278C3.15565 53.2152 3.2331 53.3072 3.29467 53.3734C4.09367 54.2344 4.66081 55.3632 5.64213 56.0021M8.09781 31.9583C8.30513 31.7464 8.60771 31.5989 8.71979 31.3228C9.5034 29.3905 9.84734 27.2805 10.756 25.4047C11.8571 23.1321 13.3214 21.0561 14.713 18.9529C15.1258 18.3287 15.5996 17.7326 16.159 17.2388C16.2432 17.1648 16.349 17.5149 16.4303 17.4375C17.8753 16.057 19.0562 14.4062 20.5325 13.0602C21.5512 12.1316 22.6971 11.3422 23.8819 10.6439C25.0581 9.95044 26.2945 9.3398 27.5853 8.90251C27.7681 8.84066 27.8834 9.16692 28.0668 9.22682C28.2277 9.27941 28.4257 9.30815 28.5742 9.22634C28.9407 9.02425 29.1193 8.417 29.5367 8.41554C30.0774 8.41359 30.4278 9.08414 30.9524 9.21708C31.1452 9.26578 31.2683 8.85381 31.4611 8.90251C31.9855 9.03545 32.3521 9.5711 32.8766 9.70404C33.0693 9.75274 33.1929 9.33882 33.3852 9.38947C33.9074 9.52679 34.2595 10.097 34.788 10.2071C35.1269 10.2777 35.4408 9.80484 35.7769 9.88811C36.1764 9.98697 36.3254 10.5898 36.7254 10.6872C37.0633 10.7695 37.3745 10.3006 37.717 10.3605C38.2758 10.4593 38.8127 10.752 39.2394 11.1304C39.3486 11.2268 39.0296 11.3544 39.0001 11.4985C38.9863 11.5657 39.0644 11.6626 39.1318 11.6553C39.6302 11.6022 40.1471 11.1109 40.6001 11.3281C41.3222 11.6738 41.7191 12.488 42.2064 13.1284C42.2687 13.2102 42.2729 13.3611 42.2053 13.4386C41.5545 14.1846 40.9173 14.9735 40.1061 15.5359C39.9511 15.6435 39.821 15.2588 39.6373 15.2189C39.3113 15.1473 38.9536 15.1084 38.6368 15.214C38.1739 15.3684 37.7239 15.6206 37.3806 15.9708C36.8566 16.505 36.3049 17.0918 36.0885 17.8125C35.853 18.5965 36.0015 19.4565 36.0889 20.2711C36.1054 20.4255 36.2546 20.5507 36.3899 20.6237C36.9639 20.9339 37.5329 21.4072 38.1836 21.4038C39.019 21.3999 39.789 20.9246 40.5618 20.6037C41.1849 20.3452 41.8111 20.0656 42.3594 19.6697C43.3978 18.9193 44.5468 18.2303 45.2953 17.1843C46.2985 15.7833 46.8079 14.0789 47.4956 12.4948C47.5645 12.3361 47.555 12.152 47.555 11.9786C47.555 11.3212 47.6884 10.6351 47.4957 10.0074C47.2436 9.18641 46.8264 8.39168 46.2577 7.75279C45.2529 6.6245 44.016 5.72994 42.8431 4.78182C42.4478 4.46237 41.9356 4.30363 41.5624 3.95789C40.9502 3.39106 40.3921 2.75605 39.9143 2.06943C39.795 1.89802 39.9544 1.60438 39.8163 1.44807C39.353 0.924097 38.7779 0.504822 38.1943 0.12353C38.0555 0.0324674 37.8582 0.0115339 37.7018 0.0655868C36.9329 0.330982 36.14 0.593453 35.4727 1.0624C35.0862 1.33364 34.7821 1.76217 34.6405 2.21602C34.4919 2.69276 34.5601 3.22354 34.6451 3.71586C34.6776 3.90383 34.9534 3.98807 34.9791 4.17701C35.0102 4.40442 35.0251 4.85195 34.7985 4.84124C33.6594 4.7867 32.6103 4.1405 31.4771 4.00999C30.1829 3.86147 28.8566 3.80741 27.5698 4.01096C26.1042 4.24324 24.6927 4.76916 23.3067 5.30482C22.3386 5.67881 21.4041 6.15799 20.5347 6.72871C19.1886 7.61206 17.9081 8.60156 16.6843 9.65145C15.8026 10.4072 14.9939 11.2521 14.2334 12.1325C13.9005 12.5177 13.7524 13.0436 13.4195 13.4288C12.6248 14.3487 11.6002 15.0582 10.8662 16.0282C10.0277 17.1366 9.50196 18.4572 8.73711 19.6191C8.53507 19.9254 8.1767 20.1051 7.97852 20.4138C7.56483 21.0571 7.22665 21.7496 6.9159 22.4493C6.17126 24.1255 5.38717 25.7918 4.81426 27.5357C4.65985 28.0066 4.71804 28.5286 4.75701 29.0233C4.77673 29.2761 4.84938 29.5351 4.9884 29.746C5.49781 30.5203 6.03176 31.2911 6.68261 31.948C6.85915 32.1263 7.14632 32.1735 7.39502 32.1754" fill="black"/>
</svg>
