<svg width="88" height="153" viewBox="0 0 88 153" fill="none" xmlns="http://www.w3.org/2000/svg">
<path d="M40.4522 152.036C43.415 151.6 46.3864 151.218 49.3406 150.727C50.2219 150.581 51.0616 150.198 51.9522 150.127C52.172 150.109 52.2967 150.51 52.5142 150.474C53.4076 150.326 54.1947 149.757 55.0879 149.609C55.3041 149.573 55.4356 150.009 55.6474 149.952C59.296 148.98 62.8857 147.795 66.4597 146.58C68.2395 145.974 69.9876 145.272 71.6981 144.494C73.815 143.531 75.938 142.558 77.931 141.362C79.4231 140.467 80.7554 139.329 82.114 138.245C82.5551 137.892 82.9208 137.456 83.3209 137.058C83.634 136.747 83.9968 136.476 84.2534 136.118C84.873 135.253 85.4418 134.347 85.9355 133.405C86.5901 132.156 87.4649 130.948 87.6917 129.558C88.0836 127.157 88.0989 124.668 87.7544 122.26C87.5752 121.007 86.8596 119.866 86.1545 118.812C85.788 118.264 85.0655 118.048 84.6143 117.567C84.0592 116.975 83.7853 116.134 83.1589 115.617C81.7077 114.418 80.1575 113.297 78.458 112.483C76.5199 111.554 74.4398 110.906 72.3417 110.432C68.5539 109.575 64.726 108.771 60.8509 108.501C55.4671 108.126 50.055 108.366 44.6596 108.502C44.2857 108.511 43.9962 108.881 43.6264 108.937C42.8644 109.051 41.4611 109.758 41.3153 109.006C39.8762 101.579 39.807 93.952 39.2609 86.4081C39.2509 86.2694 39.5605 86.3499 39.6804 86.4216C40.3808 86.8412 40.9562 87.4514 41.6687 87.8503C42.1633 88.1276 42.7198 88.287 43.2686 88.4314C45.1016 88.9139 46.9397 89.3922 48.8052 89.7298C49.3404 89.8269 49.9006 89.818 50.4374 89.7298C51.6997 89.5236 52.9595 89.2566 54.1721 88.8516C55.3424 88.46 56.5146 88.0123 57.5546 87.3507C58.3024 86.8749 58.7548 86.0393 59.4521 85.493C60.1154 84.9736 60.9263 84.6672 61.6102 84.1744C62.5115 83.5257 63.6378 83.0329 64.1972 82.0768C64.6023 81.384 64.2715 80.4741 64.243 79.6738C64.2348 79.4416 64.2055 79.1949 64.0877 78.9945C63.7104 78.3526 63.3641 77.6463 62.7791 77.1835C61.6081 76.2575 60.2831 75.5164 58.9187 74.9052C58.6996 74.8075 58.4577 75.2573 58.2419 75.1519C57.86 74.9665 57.7603 74.4383 57.4247 74.1786C57.1075 73.933 56.7194 73.7761 56.3308 73.6738C54.9014 73.2963 53.4614 72.9239 51.9936 72.7437C51.7827 72.7177 51.6625 73.0745 51.45 73.075C51.2379 73.075 51.1169 72.7146 50.9072 72.7452C49.6674 72.9255 48.5136 73.5435 47.2686 73.6826C46.8922 73.7247 46.5713 73.1571 46.2104 73.2708C44.9088 73.6826 43.8615 74.6876 42.5827 75.1643C42.3808 75.2396 42.2228 74.7317 42.0306 74.8294C41.0767 75.3113 40.4137 76.2575 39.4611 76.7426C39.0755 76.9389 38.3649 77.1783 38.1626 76.7976C37.4602 75.4749 37.3661 73.9034 37.1661 72.4212C37.1379 72.2119 37.5086 72.0919 37.4995 71.8805C37.4835 71.5097 37.093 71.2127 37.098 70.8419C37.1029 70.4716 37.4563 70.1802 37.5271 69.8167C37.6274 69.3015 37.6586 68.7666 37.6038 68.2451C37.5118 67.369 37.0225 66.5303 37.0897 65.6516C37.1722 64.5745 37.8582 63.6168 38.0395 62.5516C38.0748 62.3444 37.6986 62.2229 37.7092 62.0131C37.7279 61.6412 38.0786 61.3431 38.1189 60.9723C38.1943 60.28 38.1584 59.5716 38.0497 58.8835C38.0181 58.683 37.7103 58.5807 37.7093 58.3777C37.7083 58.1757 37.9835 58.065 38.0448 57.8724C38.1003 57.6984 38.1049 57.4974 38.0446 57.325C37.9776 57.1328 37.728 57.031 37.6819 56.8332C37.6014 56.4873 37.4172 56.0059 37.6824 55.7685C38.9212 54.6602 40.5301 54.0396 41.8835 53.0726C42.3024 52.7729 42.697 52.4146 42.9779 51.9846C43.9143 50.5512 44.8057 49.0763 45.5115 47.5177C45.9598 46.5273 46.1813 45.4471 46.4178 44.3872C46.511 43.9701 46.0835 43.229 46.4958 43.1075C49.3274 42.2739 52.3539 42.3347 55.255 41.7852C55.8848 41.6658 56.4929 41.417 57.0537 41.108C57.9566 40.611 58.8348 40.0517 59.618 39.3833C60.0727 38.9953 60.5134 38.5331 60.7256 37.9764C61.3498 36.3374 61.9744 34.6459 62.0888 32.8978C62.1472 32.0066 61.5939 31.1741 61.2241 30.3603C60.7738 29.3694 60.2307 28.4185 59.6381 27.5044C59.0224 26.5545 58.3528 25.6343 57.6072 24.7815C56.6049 23.6348 55.3177 22.7379 54.406 21.5185C54.2456 21.304 54.4596 20.9737 54.5826 20.7364C54.8739 20.1734 55.3413 19.7133 55.632 19.1503C56.2789 17.8971 56.9408 16.6388 57.3882 15.303C57.5562 14.8013 57.5572 14.2358 57.4511 13.7175C57.1471 12.2342 56.6874 10.7822 56.1702 9.35812C55.9932 8.87046 55.6898 8.43317 55.3802 8.01614C54.8844 7.34775 54.3541 6.70013 53.7625 6.11431C53.3326 5.68897 52.8437 5.31973 52.3312 4.9967C51.753 4.63264 51.1601 4.26131 50.5053 4.06292C49.0983 3.63706 47.6611 3.0663 46.1921 3.13849C44.7967 3.20704 43.4983 3.90816 42.2203 4.46956C41.2878 4.87881 40.4179 5.43138 39.5983 6.03382C38.993 6.47889 38.6832 7.83749 37.9723 7.59184C37.0656 7.27816 37.2139 5.82815 36.6898 5.02837C36.0729 4.08784 35.3679 3.19458 34.5688 2.40051C34.1301 1.96478 33.5681 1.66304 33.0172 1.37948C32.5291 1.12864 31.993 0.982188 31.4721 0.808209C30.6545 0.535036 29.8563 0.16371 29.0029 0.0385487C28.7936 0.00790763 28.6726 0.366766 28.4611 0.366766C28.2495 0.366766 28.1277 0.00323356 27.9191 0.0385487C27.0339 0.188638 26.178 0.511667 25.3657 0.892344C24.4864 1.30366 23.6241 1.78405 22.8757 2.40051C21.7198 3.35246 20.6312 4.40205 19.6914 5.56589C18.7417 6.74168 17.8051 7.97771 17.2404 9.37681C16.6232 10.9068 16.6387 12.6227 16.2024 14.2129C16.1412 14.4357 15.7693 14.5219 15.7653 14.7525C15.7588 15.1254 16.1279 15.424 16.1749 15.7933C16.2411 16.3126 16.2234 16.8533 16.0978 17.3612C16.0708 17.4702 15.8721 17.4848 15.7678 17.4406C15.276 17.2344 14.8698 16.859 14.3825 16.6424C14.2129 16.5666 14.0146 16.5811 13.8288 16.578C12.7856 16.5603 11.7371 16.4772 10.6987 16.5785C10.3259 16.6149 10.0263 16.968 9.65201 16.9857C9.44924 16.9955 9.33727 16.713 9.14374 16.6523C8.96866 16.5972 8.76641 16.5931 8.59295 16.6523C8.28626 16.7572 7.99941 16.9265 7.74705 17.1285C7.37139 17.4287 7.00515 17.7543 6.72615 18.1443C6.32855 18.7016 6.11798 19.3747 5.73658 19.9428C5.2141 20.7203 4.49936 21.3648 4.02182 22.1703C3.49778 23.0526 3.23027 24.0648 2.75169 24.9721C2.61271 25.2349 2.23965 25.3678 2.18061 25.6587C2.13986 25.8633 2.57196 25.9957 2.50612 26.1936C2.2987 26.8137 1.64873 27.2255 1.4481 27.8482C0.805457 29.844 0.132001 31.8767 0.00190436 33.9687C-0.0451183 34.7217 0.79293 35.2909 0.938701 36.031C0.999308 36.3405 0.496159 36.6033 0.579755 36.9071C0.681637 37.2758 1.24696 37.3626 1.40266 37.7126C1.46901 37.8622 1.16127 37.9541 1.11373 38.1104C1.06043 38.2849 1.01132 38.5056 1.11373 38.6567C1.50192 39.2296 2.14665 39.604 2.52075 40.1857C2.67906 40.4324 2.44655 40.8458 2.65345 41.0535C3.1451 41.5464 3.81596 41.8341 4.45129 42.1218C5.6232 42.6536 6.8019 43.214 8.05636 43.5048C8.91333 43.7032 9.81862 43.6445 10.6951 43.5687C11.2402 43.5214 11.732 43.1636 12.2786 43.1387C12.4814 43.1293 12.5839 43.4679 12.7868 43.4721C12.9898 43.4768 13.1064 43.1563 13.3094 43.1615C13.6184 43.1693 13.8727 43.5946 14.169 43.5074C14.6616 43.362 14.8756 42.6744 15.3747 42.5523C15.7447 42.4625 16.079 43.0602 16.4444 42.9527C16.9558 42.8026 17.1719 42.1545 17.6332 41.8886C18.5746 41.3464 19.5689 40.8728 20.6084 40.5529C20.7773 40.5009 20.8806 40.852 21.0566 40.8354C21.2338 40.8182 21.347 40.3254 21.4461 40.4724C21.9091 41.1589 22.1985 41.9675 22.3661 42.7777C22.4088 42.9839 22.0386 43.1059 22.0349 43.3168C22.0314 43.5183 22.3531 43.6346 22.3477 43.8361C22.3422 44.0387 22.0388 44.1415 22.0072 44.342C21.8984 45.0296 21.7565 45.7572 21.9376 46.4297C22.2349 47.5343 23.0672 48.4411 23.4048 49.5343C23.4663 49.7332 23.1214 49.8558 23.0571 50.0542C23.0007 50.2271 22.9282 50.4717 23.058 50.6005C23.9016 51.4367 24.8149 52.2313 25.8484 52.8202C26.0302 52.9241 26.1829 52.4468 26.3862 52.4972C26.9058 52.6255 27.3613 52.961 27.7763 53.297C27.9894 53.4694 28.0025 53.8236 28.2237 53.9861C28.7629 54.3824 29.3451 54.7755 29.9976 54.9292C30.3256 55.0066 30.638 54.5475 30.964 54.6327C31.5084 54.7755 32.0697 55.0835 32.3767 55.553C32.9275 56.3943 33.228 57.3951 33.4172 58.3808C33.58 59.2294 33.5136 60.1138 33.4167 60.9723C33.3749 61.3426 33.0301 61.6412 33.007 62.0131C32.9944 62.2146 33.3322 62.3309 33.3196 62.5324C33.2965 62.9043 32.9264 63.2008 32.91 63.5726C32.7886 66.3381 32.5991 69.126 32.9093 71.8769C33.6161 78.1448 35.0799 84.3084 35.9527 90.5555C35.9834 90.7747 35.5806 90.8972 35.5976 91.118C35.784 93.549 36.4293 95.9354 36.5522 98.3706C36.7397 102.086 38.3279 106.271 36.5267 109.533C35.2564 111.833 31.4922 111.12 29.0132 112.023C27.8029 112.463 26.6193 112.982 25.4687 113.559C24.9161 113.837 24.3856 114.173 23.9209 114.579C23.701 114.771 23.6938 115.151 23.4554 115.32C22.4534 116.031 21.2988 116.506 20.2665 117.173C19.5354 117.645 18.8246 118.156 18.1735 118.733C17.1444 119.644 16.2734 120.722 15.2373 121.626C14.8242 121.986 14.2642 122.15 13.8463 122.504C13.1301 123.112 12.4642 123.782 11.8542 124.495C11.4469 124.971 11.0988 125.501 10.8083 126.055C9.95048 127.692 8.8474 129.26 8.41584 131.055C8.00935 132.748 8.11174 134.552 8.35312 136.275C8.57256 137.844 9.12133 139.367 9.7821 140.807C10.3 141.937 11.1043 142.916 11.8542 143.908C12.1642 144.318 12.5308 144.695 12.9487 144.996C13.8193 145.623 14.7291 146.208 15.6962 146.674C18.16 147.862 20.652 149.008 23.2216 149.949C23.418 150.021 23.5609 149.559 23.759 149.626C24.1821 149.769 24.3551 150.374 24.7893 150.479C25.1551 150.567 25.4943 150.061 25.8637 150.133C26.4399 150.245 26.8311 150.848 27.4011 150.988C27.6127 151.04 27.743 150.612 27.9579 150.647C28.851 150.797 29.6392 151.359 30.5315 151.513C30.74 151.548 30.8618 151.183 31.0734 151.184C31.2764 151.185 31.3881 151.457 31.5816 151.518C31.7567 151.573 31.9552 151.565 32.1326 151.518C32.4909 151.422 32.7912 151.072 33.1616 151.096M41.0193 147.956C39.9687 147.956 38.9131 148.057 37.8674 147.956C37.4945 147.92 37.195 147.566 36.8207 147.549C36.6168 147.54 36.5092 147.836 36.3118 147.887C35.9709 147.976 35.6059 148.004 35.2569 147.956C32.5259 147.58 29.7839 147.227 27.0962 146.616C25.4581 146.244 23.8816 145.631 22.3189 145.017C20.7226 144.39 19.1626 143.669 17.6312 142.899C17.0791 142.621 16.5584 142.274 16.0835 141.88C15.4977 141.393 14.8753 140.909 14.465 140.269C13.8399 139.295 13.3325 138.226 13.0254 137.111C12.5311 135.316 11.7943 133.449 12.0794 131.61C12.3668 129.757 13.6412 128.183 14.6554 126.602C14.9387 126.161 15.5257 126.005 15.9074 125.644C17.5717 124.072 19.093 122.352 20.7858 120.81C21.2493 120.388 21.8116 120.084 22.3554 119.771C23.0262 119.384 23.6973 118.982 24.4237 118.713C26.7733 117.84 29.138 116.986 31.5638 116.352C32.2476 116.174 32.9805 116.222 33.684 116.292C34.2284 116.347 34.742 116.873 35.2675 116.721C35.8195 116.563 36.3973 116.058 36.4669 115.491C36.5382 114.91 35.5372 114.539 35.6068 113.959C35.6497 113.601 36.6007 113.406 36.6746 113.759C37.8291 119.262 37.9415 124.946 39.0674 130.456C39.2216 131.21 39.8734 131.803 40.4641 132.301C40.6421 132.451 40.9641 132.346 41.1595 132.219C41.6042 131.929 42.186 131.626 42.2975 131.109C42.5909 129.748 42.4185 128.32 42.2994 126.934C42.075 124.322 41.4761 121.75 41.2689 119.137C41.1321 117.413 41.1654 115.675 41.2697 113.949C41.2889 113.63 41.33 113.161 41.6356 113.064C43.2744 112.542 45.0122 112.364 46.726 112.213C46.938 112.194 47.0536 112.501 47.2557 112.567C47.4302 112.624 47.6296 112.615 47.8068 112.567C48.1668 112.469 48.4667 112.155 48.8394 112.137C51.4468 112.011 54.0674 111.948 56.6711 112.137C60.7568 112.432 64.8415 112.867 68.8738 113.586C71.4605 114.046 73.9582 114.913 76.4752 115.664C76.8068 115.763 77.1061 115.952 77.402 116.13C77.9421 116.456 78.5005 116.765 78.9792 117.175C79.7827 117.862 80.5213 118.625 81.2312 119.408C81.3778 119.57 81.3764 119.835 81.5309 119.989C81.8758 120.333 82.3751 120.507 82.6977 120.872C83.0472 121.267 83.3586 121.724 83.5101 122.229C83.6625 122.735 83.5819 123.285 83.5821 123.815C83.5826 125.383 83.7191 126.964 83.5119 128.519C83.4209 129.202 83.0264 129.815 82.7013 130.424C82.2265 131.313 81.7557 132.219 81.1186 133.002C80.2981 134.01 79.3697 134.94 78.3582 135.758C77.5343 136.425 76.5183 136.82 75.649 137.427C75.3256 137.653 75.1285 138.033 74.7962 138.246C73.6245 138.997 72.441 139.752 71.1615 140.302C67.5699 141.846 63.942 143.334 60.2139 144.516C57.431 145.399 54.5514 145.967 51.6766 146.482M48.1386 85.4026C48.0289 85.1648 48.0683 84.7373 47.8096 84.689C47.2731 84.5883 46.746 85.1487 46.2108 85.0417C45.7715 84.9539 45.6279 84.2803 45.1945 84.1671C44.8367 84.0736 44.4713 84.6553 44.1361 84.4995C43.5698 84.2362 43.3873 83.4857 42.8976 83.0993C42.7194 82.9586 42.4158 83.1128 42.2238 82.9913C41.8962 82.7841 41.7513 82.3489 41.4124 82.1598C41.3057 82.1006 41.2082 82.4512 41.1143 82.3733C40.7584 82.0773 40.1718 81.6841 40.3103 81.2437C40.4924 80.6647 41.2492 80.4455 41.8016 80.1879C43.7389 79.2832 45.7351 78.5037 47.7452 77.773C48.7705 77.4006 49.8254 77.0984 50.8953 76.8823C51.4183 76.7769 51.9613 76.8143 52.495 76.8148C52.8535 76.8153 53.2314 76.7634 53.5681 76.8859C54.0706 77.0682 54.5219 77.3798 54.9453 77.7049C55.9617 78.485 57.6162 78.941 57.8752 80.191C58.0869 81.2126 56.7193 81.9495 55.9775 82.687C55.2598 83.4 54.4464 84.0461 53.5401 84.5C53.353 84.594 53.2052 84.125 53.0023 84.177C52.4337 84.3224 52.035 84.8916 51.4649 85.0318C51.2533 85.0837 51.1229 84.6553 50.9081 84.6911C50.0135 84.8412 49.208 85.3315 48.3297 85.5569M36.3371 51.2887C35.6181 51.2908 34.879 51.4632 34.1802 51.2949C32.9306 50.9942 31.7601 50.4245 30.5855 49.9046C29.5413 49.4424 28.282 49.2108 27.5322 48.3528C26.8521 47.5749 26.7394 46.4167 26.6397 45.391C26.4391 43.3251 26.4176 41.2285 26.6397 39.1652C26.7378 38.2543 27.3898 37.4784 27.5878 36.5841C27.6247 36.4173 27.2372 36.3114 27.3058 36.1551C27.4595 35.804 28.0234 35.7173 28.1286 35.3491C28.2135 35.052 27.7836 34.797 27.7822 34.488C27.7813 34.2854 28.0568 34.1754 28.1224 33.9832C28.218 33.7038 28.1054 33.3626 28.2543 33.1065C28.4478 32.7747 28.9515 32.6703 29.0946 32.3135C29.1545 32.1645 28.7681 32.2252 28.6531 32.112C28.204 31.669 27.9551 31.0193 27.4286 30.6703C27.1352 30.4761 26.7204 30.5405 26.3731 30.6012C26.0048 30.6656 25.7069 30.9643 25.3398 31.0354C24.7048 31.1585 23.8239 30.6864 23.4041 31.1756C22.5363 32.1873 22.8193 33.8565 22.0108 34.9149C21.3661 35.7593 20.2195 36.0694 19.2819 36.5742C18.3174 37.093 17.3401 37.602 16.3123 37.9821C14.8305 38.5305 13.3222 39.0359 11.7735 39.3527C11.0706 39.497 10.3185 39.5183 9.62034 39.3532C8.4221 39.0691 7.04591 38.8925 6.17494 38.0268C5.27942 37.1356 5.04639 35.7464 4.76008 34.5197C4.67491 34.1546 5.10281 33.8243 5.10595 33.4493C5.10804 33.2385 4.74545 33.1185 4.77366 32.9092C4.94294 31.6477 5.30815 30.4174 5.6765 29.1985C5.92258 28.3847 6.26166 27.5995 6.61277 26.8241C7.06941 25.8166 7.49784 24.7857 8.09764 23.855C8.68804 22.9404 9.20084 21.84 10.1619 21.3222C10.9352 20.9057 11.9881 20.9872 12.8006 21.3217C14.2261 21.9096 15.262 23.183 16.5867 23.9698C17.4744 24.4969 18.4995 24.7602 19.4102 25.2474C19.6754 25.3891 19.7931 25.7786 20.0876 25.8415C20.7824 25.99 21.533 26.0295 22.2194 25.8472C22.7092 25.7168 23.1594 25.3668 23.4432 24.9493C23.6083 24.7062 23.5154 24.3494 23.4268 24.07C23.167 23.25 22.9188 22.3931 22.4123 21.6956C21.8982 20.9882 20.617 20.8148 20.4403 19.9599C19.9117 17.4027 19.8951 14.6829 20.4347 12.1283C20.7668 10.5562 21.9852 9.29476 22.9631 8.01614C23.6826 7.0751 24.5541 6.24155 25.4915 5.51447C26.2187 4.95047 27.0487 4.5054 27.9104 4.17821C28.2541 4.04786 28.6597 4.07798 29.0141 4.17614C29.6862 4.36258 30.367 4.60563 30.9298 5.01591C31.729 5.59809 32.4463 6.31114 33.0324 7.10573C33.4451 7.66506 33.6895 8.34176 33.8767 9.00964C33.9741 9.3576 34.0114 9.76061 33.8692 10.0925C33.6927 10.5043 33.1698 10.698 32.9797 11.1041C32.8304 11.423 32.9041 11.8047 32.9031 12.1563C32.9022 12.5126 32.8478 12.8896 32.974 13.2231C33.1804 13.7689 33.7565 14.1542 33.8751 14.725C34.0883 15.7507 34.0309 16.8236 33.9391 17.8675C33.9092 18.2066 33.7994 18.6071 33.5166 18.7992C32.664 19.3798 31.6026 19.585 30.6951 20.0763C30.4657 20.2004 30.2874 20.4118 30.1408 20.6268C29.5349 21.5149 28.9115 22.4019 28.4473 23.371C27.9374 24.4351 27.2088 25.5169 27.2336 26.6958C27.2599 27.9433 27.9622 29.1081 28.591 30.1884C28.9693 30.8386 29.5843 31.3377 30.1938 31.7817C30.9378 32.3234 31.7509 32.7908 32.6127 33.118C32.951 33.2462 33.3447 33.186 33.6993 33.1128C34.0653 33.0369 34.3644 32.743 34.7327 32.6786C35.0803 32.6178 35.4827 32.5737 35.7894 32.7477C36.7376 33.2847 37.5975 33.9827 38.3759 34.7435C38.5728 34.9362 38.657 35.253 38.6332 35.5267C38.6005 35.9037 38.1328 36.2138 38.2161 36.583C38.4511 37.6238 38.9144 38.6308 39.5309 39.5038C39.8347 39.9338 40.6364 39.8746 40.8727 40.3446C41.41 41.4134 41.7425 42.6375 41.7069 43.832C41.6807 44.7065 41.1336 45.497 40.6961 46.2563C40.5015 46.5938 40.0105 46.7081 39.8455 47.0612C39.7763 47.2092 40.0865 47.3022 40.1343 47.4585C40.1876 47.633 40.2488 47.8626 40.1343 48.0049C39.4099 48.9044 38.5779 49.7197 37.7036 50.4759M53.0369 38.3747C50.8262 38.3581 48.4279 39.2104 46.405 38.3238C45.1452 37.7718 45.2512 35.8336 44.5496 34.6557C44.1046 33.9089 43.5547 33.2234 42.9779 32.5716C42.2771 31.7791 41.5955 30.9388 40.7262 30.3333C40.4687 30.1541 40.0051 30.5675 39.783 30.3462C39.5934 30.1572 39.8105 29.7895 39.9543 29.5641C40.1935 29.1892 40.6402 28.9788 40.8901 28.6111C41.4062 27.8508 41.9608 27.0822 42.2346 26.2066C42.444 25.5371 42.4267 24.794 42.2992 24.1043C42.1407 23.2463 41.8326 22.4019 41.392 21.6473C41.0847 21.1212 40.3545 20.901 40.1047 20.3453C39.6137 19.2536 39.439 18.042 39.24 16.8626C39.1502 16.3308 39.0438 15.7455 39.2438 15.2443C39.8811 13.6458 40.6187 12.0426 41.6975 10.6985C42.2672 9.9886 43.1829 9.6048 44.0341 9.27502C45.2307 8.81125 46.4938 8.47108 47.7718 8.34592C48.1066 8.3132 48.3955 8.61546 48.6605 8.82164C48.9688 9.06157 49.1311 9.47341 49.4707 9.6666C49.5768 9.72737 49.6711 9.38045 49.7688 9.45368C50.1229 9.71958 50.2681 10.1896 50.5819 10.5017C50.8694 10.7873 51.3154 10.9052 51.5565 11.2309C51.6292 11.3285 51.2902 11.4168 51.342 11.5274C51.5443 11.9585 52.0589 12.2067 52.2241 12.6533C52.3487 12.9904 52.2516 13.3815 52.1564 13.7279C52.1024 13.9242 51.7939 14.0161 51.7934 14.2197C51.792 14.7613 52.353 15.3025 52.1512 15.8057C51.6307 17.1041 50.7034 18.2212 49.7701 19.2661C49.0962 20.0207 48.0942 20.4263 47.3825 21.1461C47.0076 21.5252 46.7271 22.0103 46.5585 22.5151C46.4443 22.8568 46.3915 23.2791 46.5642 23.5953C46.8358 24.0929 47.2829 24.5229 47.7923 24.7758C47.974 24.8662 48.112 24.4652 48.3151 24.4652C48.5181 24.4652 48.6347 24.7805 48.8376 24.7758C49.0405 24.7716 49.1522 24.5031 49.3458 24.4424C49.5209 24.3873 49.7348 24.3567 49.8968 24.4429C50.6283 24.8303 51.1906 25.5138 51.9574 25.8269C52.1511 25.9059 52.2864 25.4842 52.4949 25.5039C52.8161 25.534 53.1168 25.734 53.3484 25.9573C54.1358 26.7161 54.8349 27.5631 55.5173 28.4169C55.9096 28.9072 56.2705 29.4275 56.5659 29.9811C57.0705 30.9263 57.5708 31.8845 57.9106 32.8993C58.027 33.2473 58.0098 33.6461 57.9106 33.9988C57.7228 34.6672 57.5163 35.373 57.0663 35.9032C56.4957 36.5752 55.6738 36.9907 54.9463 37.4913C54.5054 37.7946 54.052 38.0881 53.5659 38.3129M34.7538 27.4005C34.3977 27.5647 34.0594 28.0097 33.6854 27.8918C33.1383 27.7194 32.4538 27.251 32.4689 26.6802C32.4971 25.6099 33.2952 24.6989 33.7947 23.7501C33.8773 23.5933 34.0332 23.4717 34.1959 23.3995C34.3596 23.3273 34.5594 23.2817 34.7294 23.3377C35.5266 23.6005 36.3003 23.9412 37.0399 24.337C37.1148 24.3769 37.0858 24.5063 37.0686 24.5888C37.0121 24.8625 36.9999 25.1741 36.8219 25.3902" fill="black"/>
</svg>
