<svg width="237" height="40" viewBox="0 0 237 40" fill="none" xmlns="http://www.w3.org/2000/svg">
<path d="M62.8245 39.7096C62.9807 39.5366 63.2424 39.4213 63.2928 39.1905C63.4076 38.6714 63.4212 38.1051 63.2922 37.586C63.2262 37.3186 62.7951 37.2399 62.7421 36.9673C62.1857 34.1305 62.0625 31.2151 61.4893 28.3836C61.2638 27.2667 60.9235 26.1498 60.3556 25.164C59.9513 24.4614 59.2758 23.9475 58.6413 23.4441C58.4273 23.2711 58.1347 23.2029 57.862 23.1872C56.8054 23.14 55.7151 22.9932 54.6894 23.2553C53.7916 23.4808 52.9972 24.0418 52.2614 24.6029C51.4554 25.2216 50.7254 25.9505 50.1088 26.758C49.5466 27.4921 48.9519 28.2786 48.7595 29.1858C48.4669 30.5596 48.5796 32.0016 48.695 33.4069C48.7495 34.0676 48.9011 34.7545 49.2639 35.3103C49.5896 35.8084 50.1518 36.1178 50.6651 36.4219C51.2687 36.7732 51.9248 37.0407 52.5887 37.2661C52.7732 37.3291 53.0056 37.3605 53.1739 37.2661C54.2022 36.6579 55.251 36.0444 56.0985 35.2054C56.959 34.3507 57.4583 31.3304 58.2291 32.2637C59.6697 34.0099 58.581 36.8099 59.2161 38.9808C59.3603 39.4737 59.9728 39.7201 60.4578 39.8879C60.9628 40.0609 61.525 39.9928 62.0573 39.9508M11.8468 39.825C14.0283 39.0542 16.2371 38.3568 18.3908 37.5073C19.1155 37.2242 19.7936 36.8309 20.4669 36.4429C21.0128 36.1231 21.5723 35.8137 22.0422 35.389C23.0936 34.4504 24.2479 33.5589 25.0109 32.3739C25.2993 31.923 25.164 31.2832 25.0109 30.7693C24.9112 30.439 24.5494 30.245 24.3024 29.9986C24.1424 29.8412 24.0129 29.6001 23.7916 29.5529C23.2651 29.4375 22.6547 29.3012 22.1765 29.5476C20.9106 30.2031 19.964 31.3514 18.7804 32.1484C17.7012 32.872 16.6057 33.6061 15.4027 34.099C15.2024 34.1829 15.0535 33.6953 14.8484 33.7635C13.9187 34.0728 13.184 34.8331 12.2558 35.1477C12.0571 35.2159 11.927 34.8174 11.7167 34.8226C11.5117 34.8279 11.4042 35.111 11.206 35.1635C10.8635 35.2526 10.4823 35.347 10.1467 35.2316C9.10206 34.8855 8.05325 34.4661 7.16282 33.8211C6.22256 33.1395 5.40553 32.2638 4.74269 31.3094C4.62627 31.1416 5.06101 30.9896 5.05629 30.7851C5.0521 30.5806 4.78098 30.4705 4.71963 30.2765C4.66404 30.0982 4.67191 29.8989 4.71963 29.7206C4.81664 29.3641 5.14386 29.06 5.14543 28.6877C5.14753 28.3049 4.66299 28.0007 4.73011 27.6232C4.83394 27.0464 5.51828 26.6742 5.61057 26.0921C5.69867 25.5415 5.11607 25.0066 5.23459 24.4613C5.47634 23.3549 6.29651 22.4426 6.64104 21.3624C6.69348 21.1998 6.31695 21.0949 6.36152 20.9271C6.45591 20.5758 6.83296 20.3608 6.9971 20.0357C7.02542 19.9781 6.85131 19.9309 6.88802 19.8837C7.09044 19.5953 7.49948 19.4642 7.63268 19.1391C7.69561 18.9871 7.31436 18.8822 7.36523 18.7196C7.42553 18.5361 7.73493 18.5623 7.86655 18.4155C8.10516 18.1533 8.28712 17.8439 8.45179 17.5293C8.78216 16.9001 8.91117 16.1555 9.34853 15.5945C9.7885 15.0282 10.5095 14.745 11.0161 14.2416C11.5709 13.6858 11.883 12.894 12.5164 12.4326C12.7288 12.2805 13.0634 12.721 13.2889 12.5899C13.7913 12.291 13.9848 11.6251 14.453 11.279C14.5522 11.2004 14.6445 11.5464 14.7551 11.494C15.0671 11.3366 15.1531 10.8228 15.4945 10.7494C15.773 10.6865 16.0368 10.9643 16.2444 11.1584C16.7059 11.5988 16.9361 12.2753 17.4726 12.6161C17.7757 12.8101 18.2004 12.7052 18.5476 12.6161C18.8491 12.5427 19.2057 12.4168 19.3499 12.1441C19.9902 10.9172 20.4239 9.59059 20.8219 8.26921C20.8911 8.03849 20.8424 7.76577 20.7296 7.55603C20.4239 6.97924 20.1974 6.20847 19.5953 5.95678C18.7767 5.6107 17.7951 5.74703 16.9288 5.94628C15.2334 6.33955 13.625 7.05267 12.013 7.70811C11.5369 7.90213 11.077 8.15905 10.6826 8.4894C8.90751 9.97333 7.00601 11.3524 5.52457 13.1299C4.3777 14.509 3.70804 16.2237 2.90151 17.823C2.51765 18.5833 2.18046 19.3751 1.96073 20.1983C1.21293 22.9984 0.517583 25.8142 0.00419292 28.6667C-0.0335641 28.8764 0.337714 28.997 0.336666 29.212C0.336141 29.4165 0 29.5161 0 29.7206C0 30.0929 0.335092 30.4128 0.336666 30.7851C0.337714 30.9948 -0.0320006 31.1207 0.0073296 31.3252C0.135808 32.0121 0.483495 32.6413 0.801807 33.2653C1.16784 33.9732 1.52391 34.7125 2.05408 35.3103C2.783 36.1388 3.65351 36.8309 4.53765 37.4864C5.32058 38.0684 6.15595 38.5927 7.03695 39.0122C7.84872 39.4002 8.70036 39.7411 9.58712 39.8932M46.7106 39.0332C46.9938 38.7343 47.428 38.5299 47.5602 38.1418C47.7322 37.6332 47.7552 37.0354 47.5602 36.5373C47.3677 36.0496 46.6094 35.8976 46.4788 35.3837C45.7688 32.5994 45.6634 29.6892 45.0955 26.8734C44.9156 25.982 44.5768 25.122 44.2412 24.2778C44.0745 23.8583 43.8783 23.4388 43.5941 23.0875C43.172 22.5631 42.7771 21.913 42.1457 21.6875C41.3198 21.3886 40.3669 21.4148 39.5132 21.6141C38.4471 21.871 37.4733 22.4425 36.5404 23.0193C36.1665 23.2501 35.8576 24.3827 35.6536 23.9947C35.2383 23.2029 35.5424 22.2013 35.6452 21.3151C36.1864 16.6326 36.8372 11.9659 37.5813 7.3096C37.8409 5.68934 38.3684 4.12155 38.6547 2.50129C38.7476 1.97693 38.7565 1.43157 38.7151 0.896726C38.6962 0.650278 38.7198 0.241298 38.4759 0.194106C37.3312 -0.0313675 36.1167 -0.0838339 34.9766 0.162614C34.5193 0.262242 34.1632 0.723688 33.9891 1.1589C33.4411 2.52748 33.1758 3.99569 32.8638 5.43767C32.579 6.75381 32.4207 8.09615 32.2009 9.42277C31.9498 10.9382 31.5554 12.4378 31.4521 13.9741C31.4259 14.3569 31.8664 14.6926 31.8197 15.0753C31.6907 16.1398 31.0971 17.1151 30.9439 18.1795C30.9125 18.3997 31.3367 18.5256 31.2921 18.7406C31.1422 19.4695 30.5082 20.0567 30.4059 20.7908C30.3293 21.3466 30.8737 21.871 30.7819 22.4216C30.6859 23.0037 30.0011 23.3654 29.8836 23.937C29.8065 24.3197 30.2842 24.6554 30.2486 25.0382C30.0834 26.8 29.5039 28.5041 29.2916 30.266C29.2071 30.9634 29.2459 31.6765 29.3618 32.3739C29.3954 32.5732 29.7242 32.6623 29.7263 32.8668C29.7299 33.2443 29.258 33.5852 29.377 33.947C29.6256 34.6968 30.0913 35.4256 30.7284 35.8871C31.4316 36.4009 32.353 36.5215 33.1978 36.726C33.3022 36.7522 33.3793 36.6107 33.4668 36.553C34.0463 36.1493 34.7836 35.908 35.2005 35.3417C35.8419 34.466 36.2336 33.4174 36.5325 32.3739C36.5907 32.1694 36.0883 32.0068 36.2068 31.8338C36.6741 31.1469 37.5467 30.8113 38.0459 30.1454C38.144 30.0143 37.7412 29.8937 37.7811 29.7364C37.8241 29.5633 38.122 29.5948 38.2216 29.4532C38.6154 28.8869 38.8435 28.221 39.2332 27.6547C39.4094 27.403 39.6831 26.7895 39.9039 27.0097C40.4702 27.5708 40.6664 28.436 40.8137 29.2173C40.9752 30.072 40.9023 30.9634 40.8132 31.8338C40.7786 32.1641 40.3664 32.4473 40.4482 32.7724C40.5657 33.2391 41.1693 33.4593 41.336 33.9102C41.4614 34.2511 41.358 34.6444 41.2678 34.9957C41.217 35.1897 40.9317 35.2998 40.9265 35.5043C40.9207 35.7088 41.2448 35.8242 41.2401 36.0287C41.2359 36.2332 40.9648 36.3433 40.9034 36.5373C40.8478 36.7155 40.8074 36.9358 40.9039 37.0931C41.2988 37.7381 41.7618 38.3568 42.3256 38.8602C42.4955 39.0123 42.8091 38.8444 43.0015 38.9703C43.3308 39.18 43.4619 39.6467 43.8154 39.8092C43.9643 39.8774 44.0666 39.5313 44.2307 39.5418C44.4415 39.5575 44.5653 39.9141 44.7719 39.8722M65.8471 38.2519C67.3212 37.8272 68.8231 37.4864 70.2705 36.9725C70.4425 36.9148 70.5903 36.7418 70.6333 36.5635C70.7188 36.2174 70.8195 35.7979 70.6339 35.4886C70.196 34.7649 69.3921 34.3297 68.875 33.6586C68.7088 33.4436 68.6348 33.1552 68.6223 32.8825C68.5735 31.8286 68.4094 30.7379 68.692 29.7206C68.9023 28.9708 69.4928 28.3626 70.0392 27.8015C70.2778 27.5551 70.636 27.4187 70.9758 27.3873C72.0188 27.2772 73.0723 27.361 74.1206 27.3768C74.4756 27.382 74.8406 27.3611 75.1831 27.4554C75.3891 27.5079 75.5024 27.8487 75.7132 27.812C76.5717 27.6756 77.4123 27.3768 78.1826 26.973C78.545 26.7842 78.8056 26.4277 79.0243 26.0816C79.1203 25.9296 79.0993 25.7198 79.0867 25.5415C79.0699 25.3108 79.0474 25.0643 78.9362 24.8598C78.7196 24.4561 78.5345 23.9527 78.1234 23.7587C77.6026 23.5122 76.9367 23.8531 76.397 23.6486C76.0315 23.5123 75.9371 22.9722 75.5837 22.8096C75.4348 22.7415 75.3325 23.0876 75.1684 23.0771C74.9654 23.0613 74.8532 22.7992 74.6592 22.7415C74.4835 22.6838 74.2806 22.6786 74.1065 22.7415C73.9135 22.8044 73.8033 23.0351 73.6104 23.098C73.4363 23.1609 73.2333 23.1557 73.0576 23.098C72.8631 23.0403 72.7509 22.7676 72.5474 22.7624C72.3434 22.7572 72.2155 23.14 72.0225 23.0771C71.5909 22.9303 71.411 22.2014 70.9548 22.2224C69.917 22.2591 68.9369 22.7677 68.0061 23.2238C67.6537 23.3969 67.5478 23.9108 67.1933 24.0785C67.0443 24.152 66.9379 23.8426 66.7758 23.8111C66.705 23.8006 66.6091 23.895 66.6232 23.9632C66.6547 24.1258 66.9772 24.2411 66.8881 24.3775C66.6474 24.755 66.1177 24.8546 65.8314 25.1902C65.489 25.5992 65.1816 26.0606 65.0369 26.5745C64.9897 26.737 65.3631 26.8419 65.317 27.0045C65.2189 27.3558 64.8266 27.5603 64.6704 27.8906C64.6022 28.0322 64.7333 28.2157 64.6719 28.3626C64.3232 29.191 63.5502 29.8727 63.4579 30.7641C63.4113 31.2203 64.1727 31.3986 64.3138 31.8338C64.3772 32.0278 63.9986 32.1432 63.9719 32.3424C63.879 33.0503 63.803 33.7897 63.9656 34.4871C64.1182 35.1373 64.5351 35.7035 64.8906 36.2751C65.1827 36.7418 65.7082 37.0669 65.899 37.586C65.9719 37.7852 65.5912 37.9163 65.575 38.1261M93.2367 37.0879C93.6179 36.81 94.0484 36.5897 94.3799 36.2542C94.7401 35.8871 95.1014 35.4886 95.286 35.0062C95.4171 34.6706 95.4203 34.2511 95.2808 33.9155C95.1046 33.4908 94.3667 33.3177 94.3956 32.8615C94.5393 30.5963 95.1895 28.3835 95.7706 26.1865C95.8424 25.9138 96.2614 25.8299 96.3296 25.5573C96.4596 25.0382 96.4843 24.4666 96.3296 23.9527C96.2347 23.6433 95.9483 23.355 95.6348 23.2606C95.124 23.1033 94.5199 23.0404 94.0343 23.2606C93.4323 23.5332 92.964 24.0786 92.6063 24.6344C92.1564 25.337 91.8722 26.1393 91.6619 26.9468C91.0625 29.2383 90.611 31.5663 90.1846 33.8997C90.118 34.2615 90.0598 34.6601 90.1873 35.0062C90.3949 35.5725 90.7772 36.0653 91.1516 36.5373C91.3708 36.8152 91.611 37.1351 91.9498 37.2347C92.1459 37.2924 92.2707 36.92 92.4747 36.92C92.6792 36.92 92.8019 37.1928 93.0017 37.2347M176.638 36.0444C176.838 35.9395 177.078 35.8923 177.237 35.7298C177.838 35.1215 178.355 34.4346 178.888 33.7686C179.529 32.9664 180.199 32.1851 180.759 31.3252C180.857 31.1731 180.828 30.9634 180.829 30.7851C180.83 28.6772 181.145 26.5378 180.764 24.4666C180.592 23.528 179.837 22.7886 179.224 22.065C178.894 21.6717 178.432 21.3991 177.98 21.1579C177.816 21.0687 177.611 21.0897 177.425 21.0897C176.892 21.0897 176.337 21.0058 175.826 21.1579C175.312 21.3099 174.86 21.6455 174.444 21.9811C173.851 22.4687 173.286 22.9984 172.821 23.6067C172.113 24.5348 171.51 25.5415 170.945 26.564C170.855 26.7265 170.88 26.9311 170.88 27.1198C170.88 29.0495 170.707 30.9949 170.945 32.9088C171.011 33.4436 171.42 33.8892 171.772 34.293C172.536 35.1739 173.268 36.1388 174.268 36.7365C174.726 37.0092 175.356 36.8886 175.868 36.7365M189.488 35.7036C190.182 35.3785 190.924 35.1425 191.569 34.7335C191.95 34.4871 192.261 34.1357 192.523 33.7686C193.114 32.9349 193.739 32.1012 194.113 31.1521C194.892 29.17 195.486 27.1146 195.958 25.0382C196.005 24.8284 195.629 24.7078 195.625 24.4928C195.621 24.2883 195.943 24.1729 195.939 23.9685C195.934 23.764 195.663 23.6539 195.602 23.4598C195.546 23.2816 195.513 23.0665 195.603 22.904C195.761 22.6208 195.98 22.3063 196.293 22.2119C196.87 22.0336 197.898 21.5826 198.102 22.1489C199.172 25.1325 199.048 28.415 199.635 31.5297C199.756 32.1694 199.918 32.8143 200.224 33.3859C200.392 33.7057 200.67 34.0099 201.012 34.1147C201.523 34.272 202.102 34.272 202.613 34.1147C202.926 34.0204 203.251 33.7425 203.308 33.4226C203.519 32.2114 203.49 30.9634 203.378 29.7416C203.187 27.6337 202.626 25.5783 202.405 23.4756C202.36 23.0561 202.212 22.4216 202.585 22.2171C203.211 21.871 204.038 22.0178 204.727 22.2014C205.705 22.4688 207.155 22.5736 207.455 23.5437C207.782 24.5976 206.428 25.51 206.078 26.5587C205.963 26.9048 206.008 27.2981 206.085 27.6547C206.129 27.8539 206.421 27.9588 206.427 28.1633C206.432 28.3678 206.049 28.4936 206.113 28.6877C206.255 29.1124 206.81 29.3116 206.951 29.7364C207.016 29.9304 206.678 30.0615 206.637 30.2607C206.618 30.3551 206.727 30.439 206.795 30.5124C207.534 31.278 208.242 32.0803 209.055 32.7672C209.464 33.1185 209.91 33.4908 210.436 33.5956C210.806 33.6638 211.137 33.2495 211.514 33.2495C211.719 33.2495 211.825 33.5484 212.025 33.5904C212.375 33.669 212.75 33.669 213.101 33.5904C213.301 33.5484 213.407 33.2548 213.612 33.2495C213.822 33.2443 213.951 33.6376 214.151 33.5746C214.636 33.4226 215.059 33.0713 215.393 32.6885C215.54 32.5207 215.361 32.2008 215.501 32.0278C215.892 31.5349 216.583 31.3147 216.914 30.7851C217.022 30.612 216.641 30.46 216.601 30.2607C216.582 30.1663 216.694 30.0877 216.758 30.0091C217.149 29.5581 217.708 29.2277 217.964 28.6877C218.051 28.5041 217.689 28.3731 217.627 28.1791C217.569 27.9955 217.551 27.7857 217.619 27.6075C217.767 27.2194 217.997 26.218 218.254 26.5431C219.176 27.6966 219.331 29.3064 220.014 30.6173C220.275 31.1155 220.607 31.6136 221.066 31.9439C221.2 32.0383 221.301 31.6503 221.465 31.6555C221.836 31.666 222.159 31.9387 222.527 31.9911C222.624 32.0016 222.706 31.902 222.776 31.8338C223.285 31.3252 223.907 30.89 224.257 30.2607C224.356 30.0824 223.903 29.9356 223.943 29.7364C223.999 29.4532 224.372 29.3274 224.493 29.0652C225.16 27.6127 225.649 26.0868 226.293 24.6186C226.605 23.9108 226.948 23.2134 227.358 22.558C227.656 22.0808 227.905 21.4935 228.408 21.2365C228.662 21.1107 228.992 21.42 229.157 21.6507C229.852 22.6313 230.475 23.6748 230.927 24.7865C231.692 26.6689 231.939 28.7453 232.793 30.5911C233.008 31.0578 233.543 31.3566 234.035 31.4982C234.654 31.6817 235.375 31.7709 235.968 31.5192C236.437 31.3199 236.761 30.7851 236.875 30.287C237.074 29.4218 237.008 28.5041 236.865 27.6232C236.835 27.4449 236.47 27.5131 236.394 27.3505C235.7 25.8404 235.308 24.2096 234.601 22.7047C234.14 21.7242 233.569 20.7908 232.902 19.9361C232.283 19.1444 231.624 18.3368 230.771 17.8072C229.73 17.1623 228.552 16.6641 227.34 16.4858C226.977 16.4282 226.806 17.0155 226.471 17.1623C226.372 17.2042 226.282 16.9315 226.195 16.9944C225.613 17.4087 225.016 17.8597 224.637 18.4627C224.495 18.6881 224.897 19.008 224.781 19.2492C224.135 20.5916 223.542 22.065 222.427 23.0561C222.101 23.3445 221.611 22.6471 221.369 22.28C221.277 22.1437 221.602 22.0283 221.634 21.8657C221.648 21.7976 221.551 21.7032 221.481 21.7137C221.32 21.7451 221.202 22.0755 221.067 21.9811C220.582 21.6455 220.446 20.8957 219.917 20.6388C219.433 20.4028 218.822 20.4919 218.303 20.6335C217.79 20.7698 217.336 21.1002 216.933 21.4462C216.596 21.7346 216.547 22.6313 216.122 22.5055C215.033 22.1804 214.434 20.9533 213.439 20.4028C212.012 19.6162 210.493 18.9661 208.921 18.5361C208.557 18.4365 208.218 18.9084 207.842 18.8822C207.667 18.8665 207.703 18.5361 207.558 18.4417C207 18.0641 206.425 17.6657 205.776 17.4821C205.257 17.3406 204.691 17.4035 204.159 17.4926C203.956 17.5241 203.824 17.9383 203.646 17.8335C203.142 17.5398 202.693 17.0627 202.489 16.5173C202.37 16.1975 202.832 15.8828 202.792 15.5472C202.289 11.3786 201.771 7.20472 200.87 3.1095C200.801 2.79488 200.296 2.77393 199.975 2.74247C199.275 2.66906 198.522 2.55371 197.866 2.81064C197.33 3.01514 196.985 3.56569 196.647 4.02712C196.54 4.17394 196.538 4.39419 196.584 4.56722C197.191 6.84817 198.196 9.02422 198.597 11.3524C198.882 13.0093 199.698 15.1016 198.621 16.3967C197.305 17.9751 194.632 17.4716 192.77 18.3421C192.066 18.6724 191.738 19.5429 191.063 19.9309C190.885 20.0305 190.735 19.6634 190.536 19.6162C190.465 19.6005 190.365 19.7002 190.381 19.7736C190.428 19.9728 190.7 20.0934 190.695 20.2979C190.689 20.5024 190.386 20.6073 190.353 20.8065C190.265 21.3414 190.258 21.8973 190.344 22.4269C190.56 23.7692 191.254 25.0434 191.254 26.4015C191.254 26.9153 190.501 27.146 190.346 27.6337C190.282 27.8382 190.73 27.9588 190.695 28.1633C190.663 28.3521 190.332 28.3206 190.206 28.4622C189.866 28.8449 189.494 29.2382 189.32 29.7206C189.263 29.8779 189.694 30.0091 189.598 30.1454C189.336 30.5334 188.901 30.8008 188.468 30.9738C188.136 31.1102 187.75 31.0787 187.394 31.0368C187.152 31.0105 186.814 31.0053 186.71 30.7903C186.622 30.6016 187.029 30.4652 187.024 30.2607C187.019 30.0562 186.714 29.9514 186.682 29.7521C186.573 29.0547 186.544 28.3416 186.613 27.6389C186.667 27.0936 187.027 26.6007 187.047 26.0501C187.054 25.8456 186.753 25.7513 186.688 25.5573C186.629 25.379 186.532 25.0906 186.694 25.0014C186.905 24.8913 187.286 25.3895 187.394 25.1745C187.577 24.8074 187.017 24.3145 187.218 23.9527C187.358 23.7063 187.959 24.2306 188.072 23.9685C188.222 23.6276 187.668 23.2973 187.67 22.9197C187.672 22.537 188.161 22.2275 188.085 21.8552C187.983 21.3571 187.666 20.817 187.199 20.6125C186.612 20.3608 185.901 20.492 185.28 20.644C185.09 20.6912 185.134 21.0215 184.993 21.1526C184.64 21.4935 184.15 21.6822 183.822 22.044C183.41 22.5054 183.096 23.0456 182.805 23.5857C182.472 24.2044 182.037 24.8126 181.956 25.51C181.749 27.2666 181.67 29.0705 181.956 30.8166C182.13 31.881 182.746 32.8354 183.305 33.7635C183.574 34.2092 183.997 34.55 184.408 34.8646C184.831 35.1949 185.26 35.6092 185.79 35.6931M109.395 35.6196C110.691 35.0219 112.089 34.6024 113.285 33.8211C114.134 33.2653 114.782 32.4473 115.436 31.6712C115.782 31.2622 116.141 30.8113 116.263 30.287C116.425 29.5948 116.428 28.8397 116.257 28.1476C116.178 27.8329 115.876 27.5498 115.562 27.4554C115.051 27.2981 114.407 27.1618 113.962 27.4554C112.685 28.2892 111.889 29.7154 110.685 30.654C110.132 31.084 109.451 31.3724 108.762 31.5035C107.883 31.6608 106.961 31.6555 106.082 31.4982C105.758 31.4405 105.068 31.0945 105.316 30.8795C106.928 29.4795 109.289 29.0337 110.732 27.4554C111.69 26.412 111.831 24.8284 112.132 23.4388C112.281 22.7519 112.271 22.0021 112.062 21.3309C111.936 20.9271 111.537 20.6492 111.187 20.408C110.424 19.8837 109.648 19.3226 108.759 19.0604C108.07 18.8559 107.295 18.8612 106.603 19.0552C105.033 19.4957 103.459 20.0567 102.083 20.9324C100.974 21.635 100.145 22.7152 99.2909 23.7168C99.1131 23.9213 99.0696 24.2254 99.0376 24.4928C98.9637 25.1273 99.2505 25.8247 98.9762 26.3962C98.703 26.9678 97.8215 27.0621 97.5347 27.6285C97.2924 28.1004 97.3606 28.7244 97.5347 29.2278C97.6726 29.6263 98.0748 29.8832 98.4057 30.1454C98.8084 30.4705 99.3879 30.5648 99.7167 30.9634C100.268 31.624 100.404 32.5732 100.965 33.2286C101.395 33.732 102.024 34.0309 102.607 34.3455C103.559 34.8594 104.492 35.4991 105.554 35.6983M84.3255 35.5148C84.5421 35.2998 84.9275 35.174 84.9742 34.8698C85.9695 28.4779 86.8201 22.0545 87.4231 15.6102C87.4908 14.8918 86.9853 14.2101 86.9769 13.4813C86.9727 13.109 87.3644 12.8101 87.3875 12.4326C87.4 12.2281 87.0613 12.1127 87.0739 11.9082C87.0969 11.5307 87.4572 11.2318 87.485 10.8595C87.5752 9.62726 87.6025 8.37926 87.4231 7.15751C87.2989 6.30806 87.0739 5.42719 86.5851 4.71931C86.2684 4.26312 85.6968 3.96424 85.1477 3.8751C84.8221 3.82266 84.5117 4.111 84.2762 4.34172C83.7345 4.87656 83.2169 5.45861 82.8561 6.12455C82.7449 6.32905 82.8451 6.607 82.9374 6.82198C83.1482 7.31488 83.5294 7.71858 83.7497 8.21148C83.8268 8.37927 83.8105 8.57856 83.8147 8.76732C83.832 9.63776 83.9112 10.5134 83.8142 11.3839C83.7722 11.7562 83.4261 12.055 83.4031 12.4326C83.3905 12.6371 83.7282 12.7524 83.7166 12.9569C83.6957 13.3292 83.3097 13.6333 83.3139 14.0056C83.3176 14.3884 83.7591 14.6926 83.7382 15.0753C83.6165 17.3301 83.229 19.5586 82.8923 21.7871C82.3852 25.1482 81.6982 28.4779 81.2079 31.839C81.156 32.1956 81.1791 32.5679 81.2693 32.914C81.4885 33.753 81.6704 34.6339 82.1288 35.3732C82.3023 35.6511 82.7087 35.735 83.037 35.756M135.196 34.9852C136.396 31.493 137.749 28.0532 138.795 24.5086C138.856 24.3041 138.384 24.1624 138.453 23.9527C138.936 22.5055 139.88 21.2365 140.368 19.7893C140.436 19.5901 140.017 19.459 140.039 19.2492C140.057 19.0814 140.377 19.1234 140.455 18.9765C140.848 18.2319 141.243 17.4664 141.418 16.6484C141.464 16.4334 141.021 16.2971 141.072 16.0873C141.517 14.2049 142.208 12.3906 142.859 10.5711C142.997 10.1831 143.154 9.18681 143.435 9.48569C144.151 10.246 144.297 11.3943 144.583 12.4011C144.683 12.7524 144.647 13.1352 144.575 13.4918C144.542 13.6543 144.212 13.7435 144.28 13.8955C144.44 14.2521 144.951 14.3569 145.121 14.7083C145.249 14.9757 145.173 15.3061 145.099 15.5945C145.047 15.7937 144.739 15.8986 144.759 16.1031C144.775 16.2709 145.106 16.2289 145.174 16.3757C145.938 18.0799 146.419 19.9046 147.22 21.5931C147.448 22.0702 147.833 22.4741 148.236 22.8201C148.64 23.1662 149.122 23.4126 149.606 23.6329C149.775 23.7115 149.974 23.7063 150.159 23.6905C150.391 23.6748 150.632 23.6433 150.842 23.5437C151.305 23.3235 151.85 23.1557 152.157 22.7415C152.94 21.6928 153.475 20.471 154.019 19.2807C154.145 19.0028 153.997 18.6409 154.146 18.3788C154.339 18.0379 154.823 17.9174 154.989 17.566C155.059 17.4192 154.698 17.3143 154.722 17.1518C154.77 16.8267 154.975 16.5435 155.18 16.2866C155.453 15.9457 155.939 15.7832 156.136 15.3952C156.319 15.0334 156.073 14.551 156.245 14.1839C156.411 13.8326 156.921 13.7225 157.087 13.3712C157.156 13.2244 156.778 13.1142 156.82 12.9569C156.893 12.679 157.232 12.5427 157.369 12.2857C157.682 11.7089 157.804 11.0326 158.157 10.482C158.284 10.2775 158.722 9.87374 158.76 10.1045C159.491 14.5143 159.922 18.9713 160.301 23.4231C160.32 23.6433 159.924 23.7692 159.945 23.9894C160.261 27.2719 160.326 30.6383 161.3 33.7896C161.508 34.4608 162.568 34.4189 163.237 34.6443C163.422 34.7073 163.646 34.723 163.823 34.6443C164.69 34.2458 165.587 33.8474 166.314 33.2339C166.719 32.8878 166.983 32.3634 167.109 31.8495C167.159 31.645 166.782 31.5192 166.783 31.3094C166.783 31.0997 167.133 30.9791 167.112 30.7693C167.059 30.2397 166.704 29.7783 166.579 29.2644C166.341 28.2787 166.142 27.2876 166.027 26.2809C165.309 20.041 164.962 13.754 164.081 7.52985C163.817 5.66314 163.3 3.82263 162.598 2.07128C162.392 1.55741 161.912 1.15366 161.421 0.896726C161.187 0.776124 160.908 1.08552 160.647 1.05406C160.437 1.02784 160.312 0.681763 160.105 0.723711C159.417 0.860044 158.736 1.13793 158.169 1.55217C157.357 2.14469 156.633 2.87352 156.038 3.68628C155.174 4.86083 154.491 6.16653 153.827 7.46693C152.847 9.38608 152.064 11.4048 151.11 13.3344C150.883 13.7959 150.496 15.1015 150.287 14.6348C149.094 11.9554 148.822 8.95612 147.915 6.17178C147.517 4.95003 147.014 3.75444 146.38 2.63756C146.122 2.18662 145.688 1.85104 145.277 1.53643C144.853 1.20608 144.383 0.928195 143.894 0.707965C143.726 0.629312 143.524 0.624076 143.341 0.650294C143.072 0.686999 142.777 0.728932 142.565 0.896726C141.923 1.40011 141.358 2.00839 140.832 2.63238C140.427 3.11479 140.087 3.65487 139.783 4.20545C139.028 5.57926 138.149 6.91112 137.66 8.39505C136.508 11.8978 135.924 15.5682 134.884 19.1076C133.733 23.0246 132.17 26.8157 131.089 30.7536C130.9 31.4405 130.979 32.1904 131.096 32.8983C131.149 33.2181 131.352 33.5117 131.581 33.7372C132.12 34.2773 132.691 34.8121 133.364 35.1635C133.678 35.3312 134.072 35.2683 134.424 35.2316M53.1681 32.5312C52.9253 32.4787 52.5357 32.6046 52.4402 32.3739C52.2331 31.8758 52.2614 31.2675 52.4303 30.7588C52.7182 29.8832 53.1178 28.9918 53.7691 28.3416C54.4445 27.6651 55.3937 27.3243 56.2621 26.9258C56.4346 26.8472 56.6963 26.8052 56.8311 26.9416C57.0046 27.1094 57.109 27.4397 56.9947 27.6547C56.335 28.9027 55.476 30.0352 54.605 31.1469M175.693 31.4668C175.336 31.063 174.647 30.7903 174.623 30.2502C174.57 29.039 175.046 27.8434 175.482 26.7108C175.676 26.2022 176.321 24.9123 176.478 25.4314C176.949 26.9783 176.778 28.6824 176.569 30.287M212.371 28.8764C212.082 28.8764 211.768 28.9918 211.504 28.8712C211.204 28.7401 210.884 28.4937 210.805 28.1791C210.635 27.4869 210.636 26.7423 210.805 26.0501C210.883 25.7355 211.192 25.4734 211.5 25.3633C211.737 25.2794 212.036 25.3842 212.234 25.5415C212.661 25.8771 213.057 26.2861 213.295 26.7737C213.426 27.0412 213.396 27.3978 213.276 27.6652M104.822 26.0921C104.548 26.024 104.281 25.8561 103.999 25.8824C103.795 25.9033 103.682 26.1655 103.484 26.2232C103.413 26.2442 103.314 26.155 103.314 26.0764C103.315 25.809 103.35 25.5206 103.486 25.2898C103.65 25.0067 103.906 24.7812 104.177 24.6029C104.953 24.0995 105.722 23.5332 106.605 23.2553C107.012 23.1242 108.096 23.0823 107.87 23.4441M99.9574 17.2671C100.603 16.9735 101.295 16.7585 101.896 16.381C102.199 16.1922 102.439 15.8986 102.622 15.5945C102.716 15.4372 102.693 15.2326 102.693 15.0544C102.693 14.5248 102.74 13.9847 102.623 13.4655C102.555 13.1667 102.397 12.8573 102.152 12.6738C101.617 12.2648 101.013 11.5674 100.359 11.7352C99.6543 11.9135 99.6087 13.0251 99.0313 13.4708C98.7812 13.6596 98.3255 13.2715 98.0869 13.4813C97.9316 13.6124 98.3622 13.7959 98.4225 13.9899C98.477 14.1682 98.5777 14.4566 98.4162 14.5405C98.2059 14.6559 97.9573 14.3727 97.7177 14.3727C97.6385 14.3727 97.5179 14.4671 97.5499 14.5405C97.9269 15.39 98.391 16.1975 98.8792 16.984C98.9715 17.1361 99.1079 17.2881 99.2778 17.33" fill="#212121"/>
</svg>
