<svg width="66" height="101" viewBox="0 0 66 101" fill="none" xmlns="http://www.w3.org/2000/svg">
<path d="M6.65405 99.8295C7.57705 99.202 8.79273 98.8641 9.4226 97.9466C10.4442 96.458 10.866 94.634 11.4008 92.9125C11.4527 92.7451 11.1233 92.6391 11.1251 92.4638C11.1264 92.2946 11.3829 92.2093 11.4091 92.0423C11.5002 91.4694 11.529 90.88 11.4675 90.3031C11.2821 88.567 10.8241 86.8645 10.671 85.1253C10.6553 84.9483 10.9336 84.8588 10.9729 84.6857C11.0387 84.394 11.2398 83.9279 10.9733 83.7886C10.7177 83.6549 10.5934 84.3295 10.3046 84.336C10.121 84.3399 10.1807 83.9881 10.172 83.8064C10.1576 83.5151 10.0394 83.1503 10.2357 82.9331C10.3945 82.7574 10.7761 83.107 10.9493 82.9452C11.0732 82.8297 10.6859 82.679 10.6885 82.5107C10.6915 82.3354 10.9947 82.2346 10.9646 82.062C10.8355 81.3228 10.3622 80.6702 10.2379 79.9303C10.2086 79.7576 10.4778 79.6598 10.5327 79.4932C10.5803 79.3486 10.5729 79.1838 10.5323 79.0371C10.4503 78.7389 10.2021 78.4892 10.1716 78.1815C10.0996 77.4606 10.0494 76.7102 10.2296 76.0083C10.3221 75.6487 10.825 75.5042 10.9498 75.1541C11.0065 74.9957 10.685 74.8892 10.6889 74.7213C10.6924 74.553 10.9179 74.4608 10.9689 74.3003C11.0152 74.1553 11.0418 73.9774 10.9685 73.8437C10.7905 73.5187 10.3761 73.3396 10.2527 72.9908C10.1964 72.832 10.5175 72.726 10.5136 72.5576C10.5101 72.3897 10.2841 72.2971 10.2335 72.1366C10.1881 71.9916 10.1079 71.7592 10.2392 71.6813C10.4464 71.558 10.8795 71.9276 10.9632 71.703C11.102 71.3317 10.5218 70.9253 10.6601 70.5536C10.8049 70.1633 11.2555 69.8837 11.6677 69.8071C12.124 69.7227 12.5772 70.2377 13.0243 70.1152C13.6908 69.933 14.1065 69.2294 14.7447 68.9663C14.9013 68.9014 15.0116 69.2251 15.1813 69.2251C15.3506 69.2251 15.4483 68.9663 15.6175 68.9663C15.7868 68.9663 15.8845 69.229 16.0537 69.2251C16.223 69.2216 16.3163 68.9979 16.4781 68.9472C16.6242 68.9014 16.804 68.8737 16.9379 68.9477C17.1743 69.0779 17.4234 69.2631 17.5115 69.5163C17.5848 69.7275 17.4736 69.975 17.3632 70.1693C17.2192 70.4225 16.9213 70.5648 16.7726 70.8154C16.6962 70.9444 16.6945 71.1127 16.715 71.2611C16.7961 71.8479 17.0858 72.4096 17.0753 73.002C17.0709 73.2725 16.8467 73.4997 16.6735 73.7083C16.4633 73.9614 15.9451 74.0419 15.9399 74.3699C15.9329 74.8308 16.5579 75.1099 16.6452 75.563C16.7041 75.8668 16.3416 76.1312 16.3403 76.4406C16.3394 76.7453 16.6469 77.001 16.6391 77.3061C16.6277 77.7579 16.2893 78.1638 16.2853 78.616C16.2827 78.925 16.6029 79.173 16.6203 79.4815C16.6299 79.6494 16.3595 79.7459 16.3595 79.9143C16.3595 80.0822 16.6251 80.1791 16.6203 80.347C16.616 80.5158 16.3691 80.6023 16.3359 80.7685C16.2513 81.1965 16.2217 81.6435 16.2784 82.0762C16.3185 82.3843 16.6059 82.6336 16.6203 82.9435C16.6286 83.12 16.3316 83.2183 16.3403 83.3948C16.5196 86.945 16.7259 90.5009 17.1804 94.0269C17.2441 94.5202 17.5425 94.9806 17.8818 95.3472C18.2002 95.6912 18.6212 95.995 19.0835 96.0824C19.9516 96.2473 20.8728 96.2689 21.7356 96.0776C22.1976 95.9755 22.571 95.5986 22.878 95.2416C23.4948 94.5245 24.0684 93.7503 24.4719 92.8965C24.547 92.7386 24.1626 92.62 24.198 92.4491C24.4693 91.1322 25.0896 89.9028 25.36 88.586C25.3953 88.4142 25.0957 88.3121 25.0839 88.1372C25.0747 88.0009 25.3591 87.9183 25.3064 87.7923C25.1947 87.5253 24.7921 87.4513 24.6852 87.1826C24.6342 87.0541 24.9055 86.984 24.9312 86.8485C25.0124 86.4192 24.9953 85.9765 24.9953 85.5399C24.9953 85.2469 25.0115 84.9449 24.9312 84.6632C24.8846 84.5 24.6311 84.423 24.6281 84.2534C24.6228 83.9465 24.9081 83.683 24.9081 83.3762C24.9081 83.2079 24.6791 83.1157 24.6281 82.9551C24.5818 82.8102 24.5884 82.6457 24.6281 82.499C24.7083 82.2017 24.9823 81.9529 24.9823 81.6452C24.9823 81.3375 24.6412 81.0991 24.6281 80.7914C24.615 80.485 24.909 80.2211 24.9081 79.9143C24.9077 79.745 24.6503 79.6598 24.6237 79.4928C24.533 78.9194 24.4457 78.3209 24.5657 77.7531C24.6961 77.136 25.2139 76.6466 25.3548 76.0321C25.3936 75.862 25.0948 75.769 25.0599 75.5981C24.9735 75.1705 24.9286 74.7213 25.0019 74.2912C25.1764 73.2669 25.6475 72.3045 25.7962 71.2763C25.8211 71.1027 25.5567 71.0058 25.5005 70.8396C25.4503 70.6899 25.4621 70.5216 25.4904 70.3666C25.6955 69.2476 25.9463 68.1372 26.1988 67.0276C26.225 66.9134 26.2285 66.7653 26.3258 66.6991C26.7877 66.3837 27.2728 66.0613 27.8163 65.9241C27.9921 65.88 28.1037 66.2495 28.2799 66.2063C28.7554 66.089 29.0887 65.6151 29.5632 65.494C29.7325 65.4507 29.8411 65.7268 30.0121 65.7631C30.0919 65.7804 30.1543 65.6822 30.2193 65.6337C30.8535 65.1581 31.5497 64.7509 32.1089 64.1905C32.4199 63.8794 32.6036 63.4592 32.7872 63.0606C32.8518 62.9209 32.8408 62.756 32.8408 62.6019C32.8408 62.0177 32.9324 61.4162 32.7872 60.8502C32.6773 60.4205 32.3689 60.0626 32.0993 59.7095C31.8725 59.4135 31.6068 59.1422 31.3089 58.9167C31.0023 58.6848 30.6607 58.4922 30.3022 58.3507C29.312 57.9586 27.8136 58.2351 27.2758 57.3212C26.7672 56.4566 27.8581 55.3937 27.9781 54.3997C27.9999 54.2175 27.6618 54.1146 27.6841 53.9324C28.1251 50.3155 28.8736 46.7406 29.3517 43.1281C29.4088 42.6962 29.4996 42.2037 29.2871 41.8225C29.1894 41.6481 28.8775 42.0575 28.7009 41.9627C28.5246 41.8684 28.4998 41.5992 28.4998 41.4001C28.4998 41.2011 28.5198 40.9228 28.7009 40.8376C28.8553 40.7644 28.9761 41.0574 29.1423 41.0972C29.2021 41.1119 29.2919 41.0392 29.2836 40.9782C29.2431 40.6749 29.008 40.4078 29.0093 40.1019C29.0097 39.9336 29.2893 39.8492 29.2893 39.6808C29.2893 39.374 29.0136 39.1105 29.0093 38.8037C29.0066 38.6358 29.2749 38.5388 29.2701 38.3709C29.2658 38.2017 29.0298 38.113 28.9857 37.9494C28.9098 37.6664 28.9225 37.3657 28.9225 37.0727C28.9225 36.7797 28.9098 36.479 28.9857 36.196C29.0298 36.0324 29.2658 35.9432 29.2701 35.7745C29.2749 35.6066 29.0093 35.5096 29.0093 35.3417C29.0093 35.1738 29.274 35.0769 29.2701 34.909C29.2662 34.7406 29.0411 34.6485 28.9901 34.4879C28.9438 34.343 28.9504 34.1785 28.9901 34.0318C29.0703 33.7345 29.3408 33.4857 29.3443 33.178C29.3478 32.869 29.008 32.6215 29.0093 32.3125C29.0101 32.0022 29.3207 31.7543 29.3512 31.4453C29.4363 30.585 29.4363 29.7126 29.3512 28.8519C29.3207 28.5433 29.0285 28.2949 29.0093 27.9851C28.9988 27.8172 29.2806 27.7203 29.2701 27.5524C29.2509 27.2425 28.9486 26.995 28.9281 26.6851C28.8335 25.2471 28.8335 23.7992 28.9281 22.3607C28.9486 22.0513 29.2535 21.8038 29.2701 21.494C29.2793 21.3209 28.9534 21.2161 28.9988 21.0487C29.1262 20.5796 29.5654 20.2429 29.7338 19.7863C29.8367 19.5077 29.794 19.1944 29.7935 18.8975C29.7927 18.4609 29.7944 18.0212 29.729 17.5893C29.7155 17.5002 29.6452 17.4115 29.5619 17.3751C28.8649 17.0692 28.184 16.5949 27.4219 16.5767C26.6878 16.5594 25.965 16.9021 25.3338 17.2751C24.7934 17.5941 24.3965 18.1147 23.9991 18.5989C23.7169 18.9425 23.4124 19.3082 23.3112 19.7396C23.176 20.3126 23.2383 20.9214 23.3151 21.5052C23.3374 21.6727 23.5952 21.7575 23.5995 21.9267C23.6043 22.0946 23.3356 22.1915 23.3383 22.3594C23.3413 22.5347 23.6383 22.6347 23.6139 22.8082C23.4146 24.2302 22.9016 25.5959 22.6853 27.0158C22.2216 30.0605 21.8351 33.12 21.5756 36.189C21.5607 36.3647 21.8172 36.4599 21.8735 36.627C21.9241 36.7767 21.9119 36.9446 21.8839 37.1C21.5215 39.11 20.9819 41.0903 20.7049 43.1138C20.6813 43.2882 20.9993 43.376 21.0015 43.5517C21.0054 43.8585 20.7232 44.1225 20.7215 44.4293C20.7202 44.6029 21.0364 44.7067 20.9928 44.8746C20.8702 45.3454 20.397 45.6769 20.2748 46.1478C20.2312 46.3157 20.5444 46.4195 20.5461 46.593C20.5483 46.7609 20.2814 46.8579 20.2853 47.0258C20.2888 47.1937 20.5134 47.2859 20.5649 47.446C20.6129 47.5948 20.6316 47.7705 20.571 47.9151C20.383 48.3634 19.9599 48.707 19.8386 49.177C19.795 49.3462 20.1043 49.4388 20.133 49.611C20.2059 50.045 20.2713 50.5137 20.1326 50.9317C20.0157 51.2844 19.5337 51.4346 19.4129 51.7855C19.3579 51.9448 19.6955 52.0387 19.6929 52.207C19.6885 52.5117 19.4042 52.7674 19.3937 53.0725C19.3841 53.3473 19.6886 53.5914 19.6358 53.8614C19.5782 54.1561 19.1769 54.2976 19.0984 54.5875C19.0382 54.8095 19.3387 55.0445 19.2563 55.2596C19.1228 55.6075 18.7137 55.7849 18.5174 56.1021C18.4389 56.2294 18.4624 56.3968 18.4598 56.5461C18.4563 56.7859 18.3861 57.0524 18.499 57.264C18.6504 57.5488 19.1896 57.6124 19.1991 57.9344C19.2092 58.2715 18.6683 58.3952 18.5409 58.7086C18.4929 58.8267 18.8755 58.9794 18.7555 59.0257C16.7455 59.8038 14.6361 60.3032 12.5981 61.0081C12.2854 61.1159 12.0398 61.3929 11.7153 61.4604C11.5111 61.5028 11.2119 61.4967 11.1063 61.318C10.9523 61.0588 11.0396 60.7109 11.0954 60.4144C11.2054 59.8294 11.4802 59.2828 11.5997 58.6995C12.0407 56.5474 12.4817 54.3924 12.7761 52.2157C12.8537 51.641 12.9301 51.0148 12.7116 50.4774C12.6361 50.2926 12.2976 50.7201 12.1253 50.6175C11.9547 50.5163 11.9181 50.2298 11.9822 50.0433C12.0341 49.8919 12.2945 49.9247 12.404 49.807C12.6937 49.4959 13.0662 49.1938 13.1582 48.7801C13.3471 47.9272 13.2838 47.0318 13.2119 46.1616C13.1861 45.8526 12.8032 45.5977 12.8699 45.2948C12.9493 44.9322 13.3986 44.7595 13.5896 44.4406C13.6668 44.3121 13.6476 44.145 13.6481 43.9948C13.6481 43.2704 13.6904 42.5395 13.5901 41.8216C13.5665 41.6537 13.2899 41.5815 13.2869 41.4118C13.2817 41.105 13.5765 40.841 13.5669 40.5346C13.5574 40.2261 13.2777 39.9755 13.2319 39.67C13.2049 39.4913 13.1757 39.1373 13.358 39.1421C13.6463 39.1494 13.8086 39.8799 14.0245 39.6899C14.2583 39.4844 13.7471 39.1135 13.7423 38.8037C13.7392 38.6353 14.0594 38.5293 14.0031 38.3705C13.8797 38.0213 13.4644 37.843 13.2873 37.5171C13.2149 37.3838 13.1578 37.1342 13.2926 37.0619C13.4675 36.9675 13.6852 37.2683 13.8727 37.2021C14.1275 37.1129 14.3604 36.8992 14.462 36.6512C14.5741 36.3769 14.575 36.0371 14.462 35.7632C14.3325 35.449 13.6987 35.3305 13.7815 35.0016C13.9002 34.5316 14.6147 34.4524 14.8934 34.0547C14.9977 33.9063 15.0059 33.5164 14.8232 33.5164C14.5244 33.516 14.4071 34.0318 14.1091 34.0539C13.9107 34.0682 13.6965 33.7912 13.7292 33.5965C13.8147 33.0932 14.0804 32.6107 14.4188 32.2264C14.5048 32.1286 14.6243 32.4887 14.7464 32.4415C14.9946 32.345 15.3362 32.1433 15.3117 31.8798C15.2777 31.512 14.6814 31.3774 14.6143 31.0143C14.5728 30.7888 14.9885 30.7036 15.0548 30.4842C15.3828 29.3937 15.6507 28.2772 15.7789 27.1464C15.9098 25.9915 15.8487 24.8222 15.8291 23.6603C15.826 23.4807 15.8583 23.0315 15.7109 23.1353C15.3776 23.3686 15.4871 24.2639 15.088 24.18C14.6941 24.0969 14.811 23.3387 14.9977 22.9852C15.2515 22.5044 15.9765 22.4122 16.2648 21.9514C16.4245 21.6956 16.3329 21.3239 16.2068 21.05C16.0511 20.7103 15.6616 20.5246 15.464 20.207C15.385 20.0797 15.406 19.9114 15.406 19.7612C15.406 19.325 15.3802 18.8819 15.464 18.4535C15.5233 18.1493 15.7737 17.9026 15.8286 17.5975C15.881 17.3054 15.8762 16.9887 15.7767 16.7083C15.4797 15.8674 15.183 14.998 14.6548 14.2771C14.3351 13.8409 13.8055 13.5882 13.317 13.3523C12.6623 13.036 11.9652 12.7954 11.2551 12.6353C11.0653 12.5929 10.8607 12.6764 10.685 12.759C10.0289 13.0659 9.38727 13.4081 8.77616 13.7959C8.58379 13.9179 8.40582 14.0806 8.29241 14.2771C7.81477 15.1023 7.33712 15.9393 7.01695 16.8359C6.52797 18.2055 6.14152 19.6163 5.87587 21.0452C5.84403 21.2174 6.14894 21.3187 6.15156 21.494C6.15461 21.6619 5.88766 21.7588 5.89027 21.9267C5.89333 22.1024 6.19341 22.2024 6.16724 22.3763C6.03551 23.2544 5.53519 24.0567 5.43879 24.939C5.40433 25.2532 5.81872 25.5055 5.78993 25.8201C5.6691 27.1335 5.15047 28.388 5.00129 29.6983C4.98122 29.8736 5.24293 29.9697 5.29833 30.1367C5.34631 30.2812 5.37293 30.4608 5.2979 30.5932C5.1147 30.9169 4.65842 31.0762 4.56333 31.4354C4.48482 31.7318 4.85256 32.0061 4.84296 32.3125C4.83293 32.6215 4.50534 32.869 4.50796 33.178C4.51057 33.4935 4.89747 33.7462 4.85734 34.0595C4.60434 36.0298 4.09398 37.9598 3.64557 39.8959C3.56094 40.2611 3.28485 40.5792 3.26086 40.9527C3.24908 41.1336 3.58451 41.2379 3.54743 41.4148C3.42181 42.0159 2.91189 42.4997 2.81026 43.1056C2.75922 43.4115 3.11254 43.6746 3.1169 43.9849C3.1217 44.2913 2.83818 44.5553 2.8373 44.8621C2.83643 45.0373 3.14309 45.1382 3.11299 45.3108C2.98388 46.0495 2.53109 46.706 2.38628 47.4417C2.3588 47.5823 2.68071 47.6693 2.62357 47.8004C2.49576 48.0929 1.99151 48.1578 1.93655 48.472C1.86763 48.8688 2.24495 49.2254 2.30646 49.624C2.35095 49.9126 2.31823 50.2147 2.24887 50.499C2.17559 50.8002 1.88552 51.0451 1.88421 51.355C1.88203 51.9465 2.32214 52.5091 2.23926 53.095C2.21134 53.291 1.85672 52.9583 1.65738 52.9548C1.59675 52.9539 1.49904 53.0301 1.52871 53.0824C1.71278 53.404 2.22576 53.5801 2.22576 53.9497C2.22576 54.3188 1.64255 54.4633 1.52871 54.8147C1.4768 54.9749 1.7564 55.0752 1.80831 55.2349C1.85716 55.3851 1.84845 55.553 1.81792 55.7075C1.66612 56.4782 1.40002 57.2247 1.26306 57.998C0.839944 60.3919 0.265468 62.7763 0.138534 65.204C-0.110536 69.956 0.031245 74.7226 0.138986 79.4798C0.145965 79.79 0.461772 80.0371 0.480965 80.347C0.491434 80.5149 0.220108 80.6114 0.220108 80.7797C0.220108 80.9476 0.491434 81.0446 0.480965 81.2125C0.461772 81.5223 0.166031 81.7703 0.138986 82.0793C0.050874 83.0845 0.050874 84.1006 0.138986 85.1054C0.166031 85.4148 0.467007 85.6628 0.480965 85.9727C0.48838 86.1414 0.223591 86.2271 0.196546 86.3941C0.104508 86.968 0.132863 87.5552 0.132863 88.1364C0.132863 88.4293 0.120648 88.7301 0.196546 89.0131C0.240602 89.1767 0.480093 89.2654 0.480965 89.4346C0.481837 89.6025 0.200913 89.6873 0.200913 89.8557C0.200913 90.1625 0.476603 90.426 0.480965 90.7328C0.483582 90.9007 0.216182 90.9977 0.220108 91.1656C0.223598 91.3335 0.502751 91.4183 0.500134 91.5866C0.495772 91.8913 0.204402 92.147 0.200913 92.4521C0.197423 92.7589 0.476603 93.0225 0.480965 93.3293C0.483582 93.4972 0.210512 93.5941 0.220108 93.762C0.237556 94.0706 0.556856 94.3185 0.555112 94.6275C0.553367 94.9417 0.13897 95.1992 0.210071 95.5051C0.414212 96.3836 0.865688 97.1963 1.33199 97.97C1.55052 98.3327 1.87156 98.6473 2.23623 98.8654C3.00525 99.3258 3.83445 99.6975 4.68679 99.9784C4.97468 100.073 5.30009 100.037 5.59627 99.9727C5.76246 99.9368 5.85057 99.6949 6.02113 99.691C6.19125 99.6867 6.29332 99.9148 6.45951 99.9511M55.8717 93.4158C56.7027 92.7382 57.6039 92.1375 58.3642 91.3828C58.8497 90.9003 59.2357 90.3208 59.5807 89.7314C60.2137 88.6483 60.8056 87.5362 61.2898 86.3803C61.7953 85.1742 61.9964 83.8522 62.5425 82.6635C62.693 82.3359 63.2522 82.2749 63.3369 81.9248C63.5297 81.1294 63.5074 80.2661 63.3164 79.4703C63.2073 79.0154 62.8099 78.6723 62.4767 78.3417C62.0296 77.899 61.6208 77.2551 60.9949 77.1698C60.2726 77.072 59.5567 77.5052 58.9212 77.8587C58.4658 78.1123 58.2067 78.6186 57.8028 78.9466C57.4953 79.1959 57.0137 79.2509 56.7991 79.5819C56.6979 79.7381 57.2466 79.9887 57.0765 80.0661C56.6704 80.2514 56.1766 80.1419 55.7365 80.0666C55.5681 80.038 55.4853 79.8221 55.3239 79.7663C55.1751 79.7148 54.9967 79.6996 54.8515 79.7598C54.4397 79.9311 54.048 80.1605 53.7021 80.44C53.2087 80.8386 52.7599 81.2947 52.352 81.7794C52.0153 82.1788 51.7231 82.618 51.4788 83.0793C50.9095 84.1556 50.1737 85.1915 49.9176 86.3799C49.6411 87.6655 49.6406 89.0382 49.9194 90.3235C50.086 91.0924 50.6421 91.7541 51.2031 92.3102C51.7318 92.8347 52.38 93.3137 53.1071 93.4859M39.7258 90.828C40.2632 90.5839 40.8407 90.4126 41.3384 90.0963C41.6556 89.8946 41.9212 89.6077 42.1328 89.2983C42.4503 88.8335 42.7474 88.338 42.9075 87.7993C43.1748 86.8987 43.2713 85.9558 43.4012 85.0258C43.6791 83.0469 44.0028 81.0701 44.1306 79.076C44.1506 78.764 43.8309 78.4957 43.84 78.1833C43.8488 77.873 44.1572 77.6255 44.182 77.316C44.2584 76.3541 44.2867 75.3748 44.1393 74.4206C44.1009 74.1722 43.6791 74.0969 43.6459 73.8481C43.6145 73.6126 43.9661 73.4547 43.9788 73.218C44.0058 72.7052 43.7328 72.2062 43.7589 71.6934C43.7746 71.3836 44.0817 71.1365 44.1009 70.8267C44.1114 70.6587 43.8361 70.5618 43.84 70.3939C43.8435 70.2256 44.0686 70.1334 44.1201 69.9728C44.1663 69.8279 44.1694 69.6604 44.1196 69.5167C44.0647 69.3575 43.8767 69.267 43.8213 69.1082C43.7689 68.9598 43.7711 68.7884 43.8113 68.6361C44.3046 66.7697 44.7652 64.889 45.4165 63.071C45.5944 62.5734 46.1157 62.241 46.2819 61.7395C46.3351 61.5785 46.0415 61.4811 45.9975 61.3176C45.9216 61.0345 45.9338 60.7338 45.9338 60.4408C45.9338 60.0037 45.9115 59.5598 45.9975 59.1313C46.0311 58.9656 46.3704 58.8544 46.2819 58.7094C45.929 58.1317 45.4736 57.5406 44.8542 57.2593C44.3186 57.0165 43.601 56.9745 43.0863 57.2597C41.9705 57.8772 41.0937 58.8648 40.2436 59.8116C39.8706 60.2271 39.6058 60.7528 39.465 61.2916C39.4205 61.4604 39.7708 61.5677 39.7389 61.739C39.6957 61.9745 39.3886 62.0805 39.2796 62.2938C39.0728 62.7002 38.9324 63.1385 38.8033 63.576C38.1337 65.8475 37.571 68.1497 36.8848 70.4164C36.6231 71.281 36.1254 72.0768 35.9614 72.9648C35.9047 73.2716 36.32 73.5521 36.2493 73.8559C36.1656 74.2159 35.6277 74.3596 35.5523 74.7213C35.4886 75.0238 35.8977 75.2778 35.8873 75.5868C35.8716 76.0399 35.4899 76.432 35.4781 76.885C35.4698 77.2014 35.8698 77.4541 35.8306 77.7683C35.5933 79.6572 34.9425 81.4769 34.665 83.3602C34.6397 83.5337 34.9381 83.6337 34.9407 83.8089C34.9438 83.9768 34.6799 84.0733 34.6799 84.2417C34.6799 84.41 34.9438 84.5065 34.9407 84.6744C34.9381 84.8497 34.6184 84.954 34.665 85.1232C35.0572 86.5525 35.5645 87.9589 36.2092 89.2948C36.3932 89.6756 36.7531 89.9634 37.1112 90.1915C37.6011 90.5043 38.1446 90.7532 38.7103 90.8908M62.7388 81.7703C62.6668 81.5855 62.5255 81.4137 62.5238 81.2155C62.5216 81.0152 62.5251 80.6508 62.7271 80.649C62.9281 80.6473 62.929 81.0126 62.9307 81.2121M54.0227 81.3548C53.8264 81.3085 53.4434 81.4159 53.4347 81.2159C53.4229 80.9485 53.757 80.7655 53.9908 80.6317C54.1234 80.556 54.3302 80.5426 54.4501 80.6369C54.5418 80.7088 54.4986 80.8849 54.4388 80.9849M62.7384 80.0393C62.6865 79.8506 62.5853 79.6685 62.5822 79.4724C62.5809 79.4097 62.6935 79.2976 62.7271 79.3508C62.8339 79.5183 62.8684 79.7295 62.8719 79.9272M46.4424 60.4365C46.5401 60.4421 46.7216 60.5494 46.7355 60.4534C46.7848 60.1171 46.9297 59.4641 46.5877 59.4446M59.367 57.0615C59.7325 56.8408 60.1757 56.7136 60.4636 56.3999C60.9094 55.9139 61.0547 55.2012 61.5105 54.7247C61.6047 54.6261 61.7229 54.9177 61.8573 54.9437C61.9161 54.9554 61.9973 54.8753 61.9846 54.8169C61.9192 54.5131 61.6706 54.2578 61.6431 53.9479C61.5532 52.9427 61.6222 51.9296 61.637 50.9205C61.6413 50.6275 61.6226 50.3259 61.7007 50.0437C61.7482 49.8728 62.0217 49.7806 62.0021 49.6045C61.8708 48.4396 61.2618 47.3369 61.2645 46.1642C61.2658 45.5428 61.9441 45.0724 62.0139 44.4544C62.0972 43.7192 61.6082 42.9887 61.7072 42.2552C61.7338 42.0579 62.0919 42.392 62.2922 42.395C62.3589 42.3959 62.464 42.3279 62.4435 42.2652C62.3406 41.9501 61.9968 41.7225 61.9654 41.3932C61.9428 41.1565 62.2655 40.9977 62.2996 40.7627C62.3253 40.5866 62.0527 40.4156 62.1308 40.2551C62.2847 39.9388 62.8998 39.879 62.9002 39.5272C62.9002 39.1399 62.3458 38.9742 62.1316 38.65C62.0806 38.573 62.0501 38.406 62.1369 38.3727C62.3611 38.287 62.6878 38.5414 62.857 38.3727C62.9809 38.2493 62.5408 38.0935 62.5862 37.9256C62.7127 37.457 63.1733 37.1272 63.3185 36.6638C63.3792 36.4707 63.3434 36.1756 63.1659 36.077C63.0167 35.9947 62.8932 36.3669 62.7257 36.3362C62.5923 36.3115 62.4701 36.0666 62.5608 35.9662C62.8631 35.6325 63.6069 35.6858 63.7098 35.2487C63.8145 34.8038 63.1846 34.4897 63.008 34.0673C62.9473 33.9232 62.8819 33.6752 63.0193 33.5995C63.1938 33.503 63.4136 33.8081 63.6008 33.7397C63.739 33.6899 63.8145 33.4658 63.7582 33.3312C63.5973 32.943 63.0904 32.7262 63.0093 32.3143C62.9713 32.1204 63.3887 32.4605 63.5877 32.4605C63.7866 32.461 64.1936 32.5107 64.1665 32.3147C64.1163 31.9473 63.541 31.8188 63.4503 31.4587C63.3752 31.1614 63.7255 30.8884 63.7299 30.5816C63.7325 30.4132 63.3927 30.2985 63.469 30.1484C63.7146 29.665 64.4749 29.4746 64.5639 28.9406C64.6289 28.5494 64.0121 28.3542 63.8254 28.0037C63.7547 27.8709 63.7805 27.6973 63.8241 27.5536C64.0461 26.8232 64.471 26.1529 64.6153 25.4033C64.6481 25.232 64.3772 25.1342 64.3222 24.9684C64.2729 24.82 64.2555 24.6439 64.3161 24.4994C64.5041 24.051 64.9272 23.7074 65.0489 23.2375C65.0926 23.0683 64.7994 22.9718 64.7541 22.8034C64.6782 22.5213 64.6668 22.2201 64.6965 21.9297C65.0777 18.1726 65.7215 14.4407 65.9855 10.6741C66.0173 10.2219 65.5868 9.83023 65.5759 9.37715C65.5685 9.06904 65.8843 8.82757 65.934 8.52291C66.0046 8.08844 66.0395 7.62887 65.9296 7.20262C65.8921 7.05592 65.6212 7.09746 65.5349 6.97239C65.3142 6.65216 65.165 6.28434 65.0424 5.91564C64.7606 5.06833 64.4535 4.21842 64.3257 3.33563C64.3004 3.16166 64.6677 3.04915 64.6023 2.88557C64.3153 2.16722 63.9061 1.4731 63.3604 0.921348C62.9683 0.524523 62.3934 0.353597 61.8799 0.1316C61.7373 0.0697177 61.5715 0.0788043 61.4158 0.0792371C60.9761 0.0809681 60.495 -0.0505948 60.0981 0.137648C59.6073 0.370031 59.1646 0.776817 58.9225 1.25976C58.5631 1.97768 58.519 2.8133 58.3642 3.60003C57.9882 5.51059 57.6274 7.42547 57.3313 9.35031C57.285 9.64804 57.2724 9.96005 57.3391 10.2539C57.3779 10.4248 57.6462 10.5148 57.6357 10.6897C57.6122 11.0726 57.3094 11.395 57.2453 11.7732C56.7027 14.9669 56.3891 18.1969 55.8185 21.3862C55.5516 22.88 54.9801 24.312 54.7354 25.8097C54.7062 25.9876 55.0539 26.0931 55.0203 26.2701C54.6067 28.449 53.8338 30.5504 53.4216 32.7293C53.3893 32.9015 53.7143 32.9911 53.7165 33.1659C53.7199 33.4727 53.4373 33.7367 53.436 34.0435C53.4356 34.2188 53.7439 34.32 53.7117 34.4922C53.5926 35.1241 53.3614 35.7494 53.0129 36.2912C52.9435 36.3989 52.8179 36.1029 52.6914 36.0787C52.6325 36.0674 52.5479 36.1479 52.564 36.2055C52.6107 36.3686 52.8118 36.463 52.848 36.6287C52.9117 36.9221 52.9483 37.2441 52.8524 37.5288C52.6966 37.9905 52.1832 38.3116 52.1178 38.7941C52.0916 38.988 52.5309 38.5678 52.6971 38.6734C52.8689 38.7833 52.9012 39.0655 52.8515 39.2619C52.7102 39.8223 52.4567 40.3581 52.1488 40.8484C51.9298 41.1972 51.3296 41.3335 51.2934 41.7433C51.2589 42.1375 51.9874 42.3171 51.9848 42.7131C51.9813 43.2947 51.5595 43.801 51.2764 44.3103C51.1595 44.5206 50.9108 44.6388 50.7966 44.8508C50.7255 44.9819 50.7233 45.1473 50.7455 45.2948C50.7747 45.4917 50.7656 45.7721 50.947 45.8574C51.1014 45.9305 51.2219 45.6376 51.388 45.5977C51.4491 45.583 51.5267 45.6553 51.5329 45.7172C51.5791 46.1577 51.8295 46.709 51.5398 47.0461C51.3488 47.2681 51.016 46.3767 50.7974 46.5723C50.5658 46.78 51.0805 47.1487 51.0801 47.4585C51.0797 47.6277 50.8323 47.7147 50.7961 47.88C50.7316 48.1739 50.7019 48.4945 50.79 48.7818C51.2236 50.1969 51.6371 51.6406 52.3468 52.941C52.6194 53.4403 53.1673 53.7489 53.6593 54.0388C53.747 54.0907 53.8294 53.7965 53.908 53.8614C54.205 54.1081 54.4955 54.4278 54.5797 54.803C54.6338 55.0458 54.1012 55.2998 54.2709 55.4824C54.7163 55.9615 55.4848 55.9996 56.0301 56.3631C56.331 56.5639 56.4192 57.0767 56.7747 57.1511M45.8448 54.4651C46.2104 54.2452 46.6409 54.1072 46.9405 53.8047C47.2502 53.4923 47.5185 53.1019 47.618 52.6748C47.7523 52.0975 47.8095 51.4584 47.618 50.8971C47.3959 50.2454 46.7316 49.8222 46.4341 49.2008C46.305 48.9307 46.2736 48.5862 46.3774 48.3054C46.5153 47.9332 46.9462 47.7268 47.1137 47.3672C47.1578 47.2733 46.886 47.2071 46.9331 47.1149C47.064 46.857 47.4461 46.7731 47.5525 46.5043C47.6053 46.371 47.2825 46.2836 47.3165 46.1447C47.4631 45.548 47.9181 45.0534 48.0555 44.4549C48.1868 43.8841 48.1719 43.2817 48.1078 42.6996C48.0734 42.3915 47.785 42.1427 47.7658 41.8329C47.7554 41.665 48.117 41.5421 48.0267 41.3997C47.6219 40.7614 47.0291 40.2538 46.4524 39.7622C46.1135 39.4736 45.7087 39.2637 45.3026 39.0798C45.1626 39.0161 44.989 38.9846 44.8429 39.0326C43.8505 39.3602 42.8159 39.6389 41.9304 40.1915C41.215 40.6376 40.6287 41.2876 40.1371 41.9696C39.4994 42.8533 38.8635 43.7897 38.5782 44.8387C38.3108 45.8206 38.4813 46.8734 38.525 47.8895C38.5332 48.0895 38.5647 48.3426 38.7326 48.4534C38.8403 48.5244 38.9838 48.1323 39.0554 48.2396C39.6783 49.1726 39.9636 50.3017 40.5886 51.2334C41.2495 52.2178 42.035 53.1244 42.8883 53.9505C43.0488 54.1063 43.3236 54.1288 43.546 54.0981C43.714 54.0743 43.7977 53.8553 43.9587 53.8017C44.1035 53.7532 44.339 53.6766 44.4176 53.8069C44.5419 54.0133 44.1759 54.427 44.3962 54.5287M11.9177 52.2356C11.9879 51.898 11.8911 51.4748 12.1279 51.2225C12.2662 51.0754 12.3181 51.5878 12.3386 51.7877C12.3683 52.0781 12.3866 52.3914 12.2749 52.6618C12.2378 52.7523 12.042 52.735 11.9792 52.6597M10.2414 86.4089C10.3369 86.4032 10.5048 86.3002 10.5279 86.392C10.5763 86.5841 10.5825 86.9571 10.3831 86.9688M12.3534 48.3409C12.4236 47.8588 12.3534 47.3348 12.5641 46.8951C12.6509 46.7133 12.7595 47.2599 12.7752 47.4603C12.8093 47.8947 12.8271 48.3465 12.7111 48.7671C12.6854 48.8615 12.4786 48.8403 12.4154 48.765M28.4086 46.1564C28.3131 46.162 28.1456 46.2655 28.1225 46.1733C28.0736 45.9812 28.0675 45.6086 28.2668 45.5969M13.1456 44.425C13.0479 44.4311 12.9144 44.5172 12.852 44.4423C12.7556 44.3259 12.7774 44.145 12.7892 43.9948C12.8271 43.5154 12.7883 43 13.0003 42.5677C13.0889 42.3868 13.1957 42.9325 13.2114 43.1328M29.7172 37.5249C29.6701 37.1861 29.9201 36.5205 29.5759 36.5093C29.2344 36.498 29.3822 37.1796 29.4289 37.5154M15.1927 26.3796C15.1407 26.1905 15.0395 26.0083 15.0365 25.8127C15.0352 25.7495 15.1477 25.6375 15.1813 25.6907C15.2882 25.8582 15.3226 26.0693 15.3261 26.2671M65.9065 22.3711C65.7163 22.3192 65.5327 22.2188 65.3351 22.2158C65.2718 22.2149 65.1589 22.3261 65.2125 22.3594C65.3813 22.4655 65.5942 22.5001 65.7935 22.5031M15.6354 22.0639C15.4343 22.0228 15.1085 22.1292 15.0317 21.9401C14.9017 21.6207 14.9506 21.1841 15.1687 20.9162C15.2939 20.7626 15.6528 20.8855 15.7484 21.0586C15.8299 21.207 15.4867 21.3252 15.4867 21.494C15.4871 21.6636 15.7069 21.7666 15.7497 21.9306" fill="black"/>
</svg>
