<svg width="58" height="7" viewBox="0 0 58 7" fill="none" xmlns="http://www.w3.org/2000/svg">
<path d="M35.1672 5.9155C37.4889 5.66359 39.8151 5.45261 42.1325 5.15347C44.4136 4.86377 46.6744 4.38831 48.9603 4.14585C49.1669 4.12381 49.3409 4.36941 49.5486 4.36941C49.85 4.37256 50.1297 4.15846 50.4311 4.15531C50.5435 4.15216 50.6002 4.35369 50.7123 4.35684C50.8244 4.35999 50.8891 4.16473 51.0012 4.16788C51.1133 4.17103 51.1752 4.33477 51.2824 4.36941C51.3792 4.40405 51.4902 4.40405 51.587 4.36941C51.6942 4.33477 51.756 4.16158 51.8681 4.16788C52.075 4.17732 52.24 4.40405 52.4469 4.4135C53.5106 4.47332 54.5846 4.52056 55.6413 4.37886C56.0358 4.32533 56.4183 4.11437 56.7267 3.84042C56.9532 3.6389 57.1087 3.33032 57.174 3.01858C57.2621 2.60293 57.2792 2.14633 57.1708 1.73383C57.1066 1.49137 56.8723 1.34022 56.6908 1.17963C56.4264 0.949763 56.1485 0.726213 55.841 0.568771C55.4081 0.348352 54.9603 0.124783 54.4864 0.0555083C54.2809 0.0240198 54.1061 0.272763 53.8986 0.275912C53.6938 0.279061 53.5178 0.0743813 53.3129 0.0743813C53.2005 0.0743813 53.139 0.241275 53.0318 0.275912C52.935 0.310549 52.8231 0.313698 52.7272 0.275912C52.6203 0.234977 52.5642 0.0838509 52.4535 0.0586602C52.1686 -0.00746552 51.871 -0.010619 51.5812 0.0145718C49.9434 0.165716 48.3191 0.477438 46.679 0.590796C46.5614 0.600243 46.4978 0.414483 46.3857 0.376696C46.2895 0.342059 46.1771 0.33891 46.0811 0.376696C45.9742 0.417631 45.9193 0.578204 45.8075 0.593948C45.2648 0.678967 44.6956 0.524677 44.1648 0.675821C43.9564 0.7325 43.9238 1.11665 43.7166 1.17963C43.5389 1.23316 43.3837 0.96238 43.1993 0.965529C42.993 0.971826 42.8275 1.1954 42.6214 1.208C42.509 1.21429 42.4085 0.930867 42.3313 1.01903C42.2232 1.14499 42.4614 1.42524 42.3394 1.53545C42.1863 1.67085 41.9403 1.58268 41.747 1.5386C41.5445 1.49452 41.3792 1.31505 41.1755 1.27726C40.9813 1.23947 40.6756 1.12612 40.5851 1.3182C40.4953 1.50713 41.0668 1.74328 40.9013 1.85349C40.5704 2.0802 40.1205 1.93851 39.7327 1.89442C39.4282 1.86293 39.1516 1.59214 38.8473 1.62993C38.3518 1.68976 37.9218 2.04242 37.4375 2.17467C37.2425 2.22505 37.0304 2.21875 36.8347 2.16837C36.7246 2.14003 36.6741 1.95112 36.5611 1.95112C36.3562 1.94482 36.1802 2.15265 35.9754 2.15265C35.8581 2.15265 35.7913 1.93537 35.6749 1.95112C34.9949 2.04873 34.3552 2.38249 33.6753 2.4801C33.5588 2.49585 33.4921 2.27227 33.3747 2.27857C33.1678 2.29117 33.0031 2.52419 32.7958 2.52419C24.8983 2.60606 16.9995 2.62811 9.10215 2.53049C8.61112 2.5242 8.14729 2.2534 7.65745 2.21561C6.79301 2.14948 5.9218 2.14949 5.05778 2.21876C4.85202 2.23765 4.69287 2.47066 4.48673 2.4801C4.28215 2.4927 4.10576 2.27857 3.90096 2.27857C3.78867 2.27857 3.7269 2.44546 3.61985 2.4801C3.52301 2.51474 3.41107 2.51789 3.31512 2.4801C3.20828 2.43917 3.15235 2.28804 3.04157 2.26285C2.75174 2.19672 2.43826 2.12745 2.15474 2.22191C1.90092 2.30378 1.77446 2.64699 1.52855 2.75405C1.44434 2.79184 1.38232 2.55252 1.29955 2.59346C0.907229 2.78554 0.54429 3.06264 0.234121 3.38697C0.0982528 3.52867 0.0155866 3.7428 0.00440391 3.94747C-0.0156787 4.31589 0.0332958 4.69374 0.143707 5.04326C0.184421 5.17237 0.309051 5.2889 0.433274 5.30149C0.545766 5.31094 0.603354 5.1157 0.714834 5.09681C1.00706 5.04328 1.37709 4.88584 1.60288 5.09681C1.74894 5.23221 1.24225 5.37077 1.23728 5.57859C1.23416 5.71084 1.47369 5.70767 1.58922 5.66988C1.99071 5.53763 2.31592 5.16608 2.72942 5.09366C3.4951 4.95511 4.28091 5.04957 5.05683 5.04957C5.25247 5.04957 5.45316 5.04013 5.64222 5.09681C5.75131 5.1283 5.81079 5.29834 5.92364 5.30149C6.03586 5.30464 6.10037 5.11253 6.21263 5.11253C6.32489 5.11253 6.38935 5.30464 6.5016 5.30149C6.61899 5.29834 6.68568 5.08422 6.80204 5.09996C7.48023 5.20072 8.11504 5.55338 8.79513 5.63525C9.00142 5.66044 9.17575 5.41799 9.38331 5.41485C9.58809 5.4117 9.76431 5.61323 9.96909 5.61638C10.0813 5.61638 10.1458 5.42427 10.258 5.42741C10.3703 5.43056 10.4321 5.59431 10.5391 5.62894C10.6359 5.66358 10.7472 5.66358 10.8439 5.62894C10.954 5.59116 11.0208 5.38966 11.1332 5.42115C11.4484 5.50617 11.6634 5.8777 11.9835 5.93753C12.1902 5.97846 12.3601 5.6825 12.5697 5.68879C12.8731 5.69824 13.1341 5.98477 13.4376 5.98792C20.2754 6.08553 27.1143 6.00682 33.9527 5.99422C34.1483 5.99422 34.3491 6.00366 34.5381 5.94698C34.6473 5.91549 34.7068 5.7486 34.8195 5.7423" fill="#00EEBB"/>
</svg>
