<svg width="111" height="41" viewBox="0 0 111 41" fill="none" xmlns="http://www.w3.org/2000/svg">
<path d="M75.0885 39.9744C75.7666 39.6639 76.4651 39.3946 77.1228 39.0424C77.6363 38.767 78.1351 38.4577 78.5937 38.0978C78.963 37.8077 79.3379 37.4994 79.5925 37.1033C80.592 35.551 81.61 33.9887 82.333 32.2883C82.8603 31.0486 83.1215 29.6992 83.3085 28.364C83.339 28.143 82.9612 28.0163 82.9612 27.7935C82.9612 27.5708 83.3357 27.4441 83.3085 27.2231C83.1433 25.8879 82.815 24.5709 82.4045 23.29C81.7567 21.2703 80.3521 19.4558 80.1411 17.3439C80.0702 16.6335 81.0609 16.2249 81.6602 15.8425C82.9661 15.0099 84.3609 14.3072 85.7982 13.7351C87.3942 13.0999 89.0245 12.4553 90.7263 12.2337C92.91 11.9501 95.1653 11.8382 97.3311 12.2359C98.4745 12.4455 101.027 13.0505 100.346 13.9989C99.1931 15.6061 96.559 15.1185 94.7312 15.8596C94.4259 15.9835 94.2307 16.2967 94.0317 16.5606C93.9488 16.6697 93.8757 16.8189 93.9063 16.9528C94.1135 17.876 94.3495 18.803 94.7301 19.6686C94.777 19.775 94.9008 19.4026 95.0049 19.453C95.4542 19.6719 95.7187 20.2051 96.1876 20.3784C96.5415 20.509 96.9521 20.4069 97.3158 20.3071C97.5219 20.2506 97.6184 19.9297 97.8322 19.9259C98.2188 19.9193 98.5617 20.368 98.9374 20.278C99.3905 20.17 99.5846 19.5446 100.027 19.4015C100.236 19.334 100.377 19.7975 100.589 19.7427C101.182 19.5885 101.6 18.9934 102.193 18.8398C102.405 18.7849 102.554 19.2676 102.754 19.1809C103.261 18.9626 103.491 18.3186 103.983 18.0674C105.234 17.4267 106.916 17.5364 107.912 16.5408C108.855 15.5973 108.715 13.9814 109.278 12.7691C109.61 12.056 110.205 11.4943 110.579 10.8031C110.67 10.6364 110.651 10.4279 110.652 10.2381C110.653 9.86294 110.712 9.46689 110.585 9.11363C110.307 8.33965 109.772 7.6803 109.457 6.92058C109.11 6.0857 109.03 5.14332 108.605 4.3452C108.358 3.88059 107.902 3.5564 107.493 3.22727C106.992 2.82519 106.492 2.37814 105.889 2.16147C103.63 1.34963 101.309 0.704548 98.9706 0.164238C98.4237 0.0380744 97.8022 -0.0502372 97.2874 0.174115C96.7389 0.412729 96.3725 0.964556 96.0191 1.44946C95.9079 1.60251 95.9466 1.82412 95.9466 2.01391C95.9466 2.56739 95.8234 3.15542 96.0191 3.67214C96.2934 4.39511 96.9161 4.93158 97.3054 5.59806C97.7673 6.3874 98.2149 7.19046 98.5683 8.03466C98.6004 8.11201 98.4886 8.23268 98.4057 8.2261C95.3354 7.99736 92.2901 7.38903 89.2115 7.33747C88.8299 7.33143 88.6597 7.88875 88.3162 8.0577C88.1537 8.13778 87.9329 7.96061 87.7731 8.04618C87.4492 8.22007 87.2982 8.65615 86.9558 8.78725C86.6073 8.92055 86.2017 8.86625 85.8369 8.78781C85.628 8.74283 85.4519 8.27656 85.3036 8.43125C85.0969 8.64628 85.5801 9.18494 85.3189 9.32866C84.8325 9.5958 84.2033 9.42356 83.6558 9.33634C83.4454 9.30288 83.3189 8.89203 83.1242 8.97925C82.4475 9.28259 81.8439 9.78176 81.3755 10.3588C81.2676 10.4921 81.6171 10.6249 81.652 10.7927C81.6678 10.869 81.5789 10.9803 81.5026 10.9699C81.1198 10.9189 80.7414 10.4515 80.3962 10.6254C80.1312 10.7581 80.6765 11.3851 80.4121 11.5184C80.0675 11.6923 79.6896 11.2239 79.3074 11.1734C79.2065 11.1597 79.1214 11.265 79.0494 11.3374C78.8833 11.5047 78.6415 11.6517 78.6002 11.8843C78.5703 12.0527 78.9704 12.1739 78.876 12.316C78.6238 12.6956 78.1882 13.3171 77.7767 13.1245C76.8944 12.7109 76.6706 11.4526 75.864 10.9052C74.1361 9.73129 72.1788 8.93865 70.2942 8.04179C69.4592 7.64465 68.5969 7.29798 67.7135 7.02645C65.425 6.32323 63.1324 5.60848 60.7891 5.12083C60.5729 5.07585 60.4444 5.4697 60.2237 5.4675C60.0106 5.46586 59.9005 5.15593 59.6923 5.1104C59.3216 5.02867 58.9291 5.04403 58.5538 5.10053C56.833 5.35944 55.1206 5.67979 53.4209 6.05389C52.0827 6.34845 50.7238 6.60681 49.4465 7.10489C47.8973 7.70883 46.4989 8.65177 44.9856 9.34183C44.8098 9.42191 44.6008 9.42795 44.4098 9.40107C44.1309 9.36103 43.8357 9.30672 43.6039 9.14545C42.9943 8.72198 42.5329 8.10761 41.9281 7.67701C40.6726 6.78399 39.2985 6.06925 38.0367 5.18556C37.7118 4.95791 37.547 4.5125 37.1838 4.35397C36.074 3.86961 34.8841 3.5904 33.7099 3.29803C32.2128 2.92503 30.7166 2.46591 29.1778 2.36004C28.4246 2.30848 27.7175 2.83178 26.9625 2.83397C26.2148 2.83617 25.5077 2.27337 24.7665 2.3732C24.3042 2.43519 24.1328 3.1225 23.6912 3.27335C23.4842 3.34411 23.337 2.8614 23.1299 2.93216C22.4676 3.15816 21.9803 3.73961 21.3615 4.06763C20.7153 4.40992 20.0635 4.79006 19.3476 4.93542C19.1314 4.9793 18.9981 4.5487 18.7817 4.59094C18.5846 4.62989 18.6171 4.97327 18.4678 5.10821C18.1491 5.39674 17.7755 5.62 17.4051 5.83777C16.6172 6.30073 15.8353 6.78454 14.9971 7.14767C14.7123 7.27055 14.3038 7.06649 14.0762 7.27823C12.106 9.11035 10.3325 11.1476 8.53774 13.1542C7.86625 13.9051 7.36297 14.7981 6.68428 15.5419C6.37152 15.8848 5.83505 16.0022 5.58373 16.3927C5.49137 16.5365 5.92763 16.6676 5.85974 16.8244C5.3412 18.0213 4.7065 19.181 3.92443 20.2232C3.82552 20.3548 3.67394 19.9824 3.51282 19.9511C3.43894 19.9368 3.33915 20.0372 3.35332 20.1118C3.41423 20.4311 3.79952 20.7026 3.7161 21.0169C3.57945 21.5314 2.95451 21.8019 2.77185 22.3021C2.70996 22.4716 3.15599 22.5759 3.08587 22.7421C2.92894 23.114 2.3544 23.2094 2.22735 23.5928C2.13777 23.8633 2.63019 24.1172 2.5406 24.3877C2.41356 24.7711 1.79185 24.8495 1.68209 25.2385C1.59337 25.5522 2.04202 25.8216 2.0435 26.1479C2.04442 26.3619 1.75685 26.4782 1.68853 26.6811C1.58875 26.9762 1.70543 27.3361 1.55101 27.607C1.34905 27.9609 0.841786 28.0848 0.675045 28.4567C0.603997 28.6153 0.947666 28.7069 0.981473 28.8775C1.05427 29.245 1.1226 29.6553 0.981157 30.002C0.803673 30.437 0.237249 30.641 0.0813581 31.0842C0.0106919 31.2855 0.412394 31.4199 0.407704 31.6333C0.403015 31.8461 0.12138 31.9635 0.0575294 32.167C-0.000323085 32.3508 -0.036193 32.5773 0.0580286 32.7452C0.288566 33.156 0.736218 33.4111 0.981423 33.8132C1.08012 33.975 1.05357 34.1884 1.05362 34.3782C1.05373 34.7485 1.07515 35.1286 0.982022 35.4873C0.92815 35.6947 0.632347 35.8071 0.626622 36.0216C0.620951 36.2344 0.958743 36.3573 0.953018 36.5702C0.947293 36.7841 0.631588 36.8927 0.597618 37.1044C0.509067 37.6552 0.437314 38.2443 0.598167 38.7786C0.696915 39.1066 0.994571 39.4066 1.32075 39.5054C1.852 39.6661 2.45025 39.6491 2.98499 39.5004C3.18331 39.4456 3.12987 39.0929 3.2868 38.959C3.93571 38.4061 4.92047 38.2004 5.3659 37.4719C5.71258 36.9048 5.4968 36.1357 5.41627 35.4747C5.36872 35.0847 5.00738 34.7688 4.98878 34.376C4.9787 34.1632 5.275 34.0458 5.33896 33.8423C5.39681 33.6585 5.40161 33.4462 5.33874 33.2641C5.26873 33.0612 4.99697 32.9558 4.95995 32.7446C4.86267 32.189 4.79876 31.5944 4.95149 31.0513C5.83231 27.9186 6.82328 24.8084 8.0396 21.7909C8.5726 20.4689 9.36431 19.2594 10.1766 18.0899C10.8319 17.1459 11.6624 16.3384 12.4233 15.4789C13.1381 14.6714 13.8077 13.8157 14.6033 13.0883C15.0234 12.7049 15.5986 12.5294 16.042 12.1728C16.5094 11.7971 16.7972 11.1975 17.3201 10.9052C19.7236 9.56015 22.0872 7.9842 24.7519 7.29907C26.8854 6.75053 29.1744 7.00999 31.3581 7.29523C32.8047 7.48448 34.1999 8.04673 35.5042 8.70388C36.66 9.28588 37.6489 10.1608 38.6586 10.9732C39.0539 11.2908 39.4073 11.6682 39.7035 12.0812C39.7707 12.175 39.7862 12.3495 39.7021 12.4284C39.2004 12.9007 38.5562 13.1975 38.0367 13.6495C37.4351 14.1733 36.8578 14.7318 36.3492 15.3472C35.9827 15.7904 35.7997 16.3697 35.4266 16.8074C34.7029 17.6571 33.7526 18.3022 33.076 19.1903C32.5874 19.8315 32.2549 20.5885 31.9704 21.3444C31.2441 23.273 30.5399 25.2204 30.0512 27.2236C29.9985 27.4397 30.3975 27.5708 30.3974 27.7935C30.3972 28.0163 30.0195 28.143 30.0504 28.364C30.237 29.6992 30.5614 31.0233 31.0256 32.2883C31.28 32.9816 31.6868 33.63 32.1827 34.1752C33.1295 35.2158 34.1394 36.2306 35.3135 37.0024C36.5952 37.8444 37.9975 38.5487 39.4716 38.9651C40.3662 39.2174 41.3845 39.2783 42.2594 38.9629C43.7771 38.416 45.1438 37.4692 46.4096 36.4648C46.9483 36.0375 47.2317 35.3546 47.5663 34.7523C48.303 33.4248 49.1095 32.1171 49.6176 30.686C50.1316 29.2378 50.438 27.7102 50.6083 26.1825C50.6522 25.7886 50.2487 25.4469 50.2457 25.0509C50.2441 24.8375 50.5319 24.7206 50.5959 24.5171C50.6537 24.3334 50.6453 24.1249 50.5956 23.939C50.4951 23.5621 50.154 23.2467 50.1531 22.8567C50.1521 22.4563 50.6364 22.137 50.5903 21.7393C50.4811 20.798 50.0669 19.9154 49.7101 19.0389C49.0307 17.3697 48.1563 15.785 47.4859 14.1125C47.4121 13.9287 47.431 13.7043 47.4968 13.5173C47.5545 13.3533 47.6762 13.1909 47.8345 13.1207C49.2306 12.5036 50.642 11.9008 52.1081 11.4795C54.2244 10.8706 56.3909 10.4477 58.5539 10.0374C58.9332 9.96552 59.3321 9.9688 59.712 10.0379C61.0279 10.2765 62.3339 10.581 63.6179 10.9562C65.1843 11.4131 66.75 11.8958 68.2539 12.5305C69.7492 13.1618 71.2302 13.8596 72.5924 14.7449C73.1764 15.124 74.0035 15.5765 74.0182 16.2759C74.031 16.887 73.1901 17.2073 72.6499 17.4871C72.4974 17.5655 72.3845 17.2419 72.2162 17.2084C72.1423 17.1936 72.0394 17.2951 72.0566 17.3691C72.1052 17.577 72.453 17.7186 72.3827 17.9204C72.1883 18.4777 71.7765 18.9467 71.3613 19.3647C70.8034 19.9259 70.2083 20.4909 69.4935 20.8266C69.3009 20.9171 69.1525 20.5474 68.9456 20.4985C68.8719 20.4815 68.7765 20.5847 68.785 20.6604C68.8131 20.9116 69.1374 21.1381 69.0435 21.3729C68.694 22.2462 68.1094 23.0103 67.5442 23.7607C67.2722 24.1222 66.5699 24.2302 66.5508 24.6828C66.5317 25.1386 67.4531 25.2412 67.4629 25.697C67.4797 26.4836 67.0449 27.2395 66.6197 27.9005C66.5323 28.036 66.376 27.6613 66.218 27.6306C66.1441 27.6164 66.0214 27.7255 66.0586 27.7914C66.2888 28.1989 66.9192 28.4222 66.93 28.8906C66.9398 29.319 66.0993 29.4452 66.1063 29.8741C66.1143 30.3684 66.831 30.6048 66.9655 31.0804C67.0255 31.2927 66.6059 31.4128 66.6036 31.6333C66.6013 31.8461 66.8898 31.9635 66.9538 32.167C67.0116 32.3508 67.0157 32.5631 66.9536 32.7452C66.8848 32.9471 66.6487 33.0617 66.5803 33.2636C66.5172 33.4495 66.3961 33.7808 66.5778 33.8532C66.7948 33.9394 67.0218 33.3365 67.1855 33.5038C68.1672 34.506 68.7076 35.8741 69.6102 36.9486C70.0697 37.4955 70.8151 37.7616 71.2424 38.3343C71.3446 38.4714 70.9996 38.5992 70.9668 38.7676C70.9523 38.8416 71.0535 38.9464 71.1266 38.9283C71.3393 38.8751 71.4864 38.5054 71.6898 38.5871C72.4929 38.9102 73.0538 39.6974 73.8549 40.0254C74.0511 40.106 74.1887 39.7061 74.4006 39.6974M74.9703 35.105C74.5985 34.9531 74.1754 34.8922 73.8549 34.6492C73.2809 34.2142 72.7861 33.6733 72.3367 33.1089C71.9876 32.6706 71.5507 32.2197 71.4766 31.6629C71.2339 29.8412 71.2753 27.9828 71.4098 26.1496C71.4478 25.6318 71.6571 25.103 71.987 24.7031C72.5916 23.9708 73.4952 23.538 74.1403 22.8413C74.5311 22.4195 74.7097 21.8353 75.063 21.3811C75.3085 21.0652 75.6212 20.2868 75.9245 20.5474C76.6486 21.1683 76.7869 22.2577 77.1272 23.1513C77.6381 24.4935 78.412 25.8089 78.4741 27.245C78.532 28.5823 77.9334 29.8774 77.4724 31.1336C77.0773 32.2104 76.5316 33.2334 75.9208 34.2027M41.1799 33.4709C40.6112 33.4731 40.0226 33.6272 39.4738 33.4775C38.935 33.3305 38.4697 32.9668 38.0367 32.6125C37.4269 32.1127 36.8174 31.5834 36.3685 30.9339C35.9528 30.3322 35.6295 29.641 35.4873 28.923C35.3079 28.0163 35.2718 27.0629 35.4218 26.1512C35.5713 25.2417 35.9033 24.3482 36.37 23.5544C37.4915 21.6472 38.7277 19.7926 40.1536 18.1031C40.699 17.4574 41.4849 17.0554 42.2143 16.6308C42.3846 16.5321 42.6306 16.4651 42.8004 16.565C43.1866 16.791 43.516 17.1376 43.7408 17.526C44.3102 18.5106 44.9721 19.509 45.1536 20.6329C45.4757 22.6269 45.4155 24.6822 45.2213 26.6932C45.1154 27.7881 44.7019 28.8423 44.2628 29.85C43.8459 30.8072 43.3471 31.7512 42.6715 32.545M104.948 9.30288C104.335 8.52286 103.573 7.84103 103.108 6.96337C102.933 6.6326 103.057 6.20967 103.116 5.83996C103.129 5.75548 103.236 5.63426 103.311 5.67485C103.958 6.02701 104.725 6.31609 105.127 6.93594C105.427 7.39945 105.241 8.04124 105.199 8.59253" fill="black"/>
</svg>
