<svg width="52" height="41" viewBox="0 0 52 41" fill="none" xmlns="http://www.w3.org/2000/svg">
<path d="M29.7945 39.6278C30.4844 39.3279 31.1226 38.8488 31.8642 38.7282C32.2661 38.6633 32.6307 39.1948 33.0276 39.1031C33.2296 39.0571 32.7739 38.6474 32.9079 38.4875C33.6421 37.6135 34.5337 36.8738 35.4584 36.2087C36.2696 35.6254 37.1387 35.0877 38.0827 34.7668C38.2967 34.694 38.4366 35.123 38.6625 35.1207C38.8815 35.1185 39.0016 34.8214 39.2108 34.7554C39.3996 34.6963 39.6876 34.6012 39.804 34.7628C39.9298 34.9369 39.5483 35.2209 39.6726 35.3967C39.9642 35.8087 40.443 36.0585 40.8872 36.294C41.0637 36.3879 41.2869 36.3958 41.4823 36.356C42.1643 36.2155 42.8997 36.1398 43.4852 35.7603C44.0703 35.3802 44.1596 34.2314 44.8524 34.1688C45.4734 34.113 45.8802 34.9569 46.1595 35.519C46.2576 35.7171 45.8635 35.8622 45.7975 36.0733C45.7377 36.2639 45.702 36.4983 45.798 36.6729C45.9678 36.9831 46.2417 37.2397 46.5396 37.4263C46.7054 37.5305 46.9251 37.502 47.1203 37.5026C47.694 37.5037 48.2903 37.5987 48.84 37.4326C49.393 37.2659 49.8739 36.8977 50.3258 36.5352C50.686 36.2462 51.2628 35.9646 51.2498 35.5003C51.2269 34.6803 50.7799 33.8707 50.2344 33.2624C48.7463 31.6038 46.9611 30.2404 45.2524 28.814C44.7959 28.4327 44.1422 28.3024 43.7525 27.8518C42.8222 26.7769 42.2741 25.4051 41.3598 24.316C40.1876 22.9197 38.9136 21.5979 37.5195 20.428C36.8575 19.8727 36.0499 19.504 35.2483 19.1871C33.239 18.3927 31.2434 17.4459 29.1122 17.1034C26.8633 16.7421 24.5392 16.8104 22.2804 17.1023C20.7804 17.2963 19.3813 17.9842 17.9745 18.5441C17.1909 18.8559 16.4469 19.2678 15.7269 19.7094C15.0123 20.147 14.3983 20.7393 13.6815 21.1734C12.5162 21.879 11.2459 22.3996 10.0908 23.1222C9.29095 23.6224 8.53033 24.1942 7.83278 24.8321C7.59828 25.046 7.5773 25.4449 7.33027 25.6446C6.6201 26.2182 5.74966 26.5607 5.01733 27.1047C4.54307 27.4575 4.25462 28.0595 3.72647 28.3223C3.38057 28.4942 2.94616 28.4065 2.56959 28.3229C2.34783 28.2734 2.21704 27.858 2.00446 27.9388C1.29378 28.2085 0.591835 28.6376 0.131839 29.247C-0.105488 29.5616 0.0324681 30.0481 0.122325 30.4328C0.344939 31.3858 0.687792 32.3093 1.05855 33.214C1.35823 33.9446 1.49504 34.8613 2.12838 35.3273C4.5216 37.0889 7.05733 38.8096 9.88219 39.7086C11.8627 40.339 14.0377 39.8844 16.1116 39.7786C16.5154 39.7575 16.8375 39.3575 17.241 39.3325C17.4596 39.3188 17.5859 39.679 17.8048 39.6727C18.0249 39.667 18.141 39.3592 18.3537 39.3017C18.7226 39.2027 19.1142 39.2187 19.4959 39.2187C20.0652 39.2187 20.6432 39.1914 21.2018 39.3023C21.5977 39.3808 21.9133 39.7632 22.3165 39.7786M29.6709 35.1429C26.2748 35.1429 22.1977 37.2016 19.4824 35.1429C17.743 33.824 20.6171 30.8982 21.3443 28.8288C21.4456 28.5403 21.8159 28.4156 21.9434 28.138C22.0267 27.957 22.0944 27.66 21.9369 27.5394C21.7721 27.4131 21.4541 27.833 21.3287 27.6668C20.7073 26.8424 20.5148 25.7516 19.9418 24.8924C19.7652 24.6273 19.3562 24.6142 19.1389 24.382C18.7607 23.978 18.3646 23.545 18.1874 23.0187C18.1275 22.8406 18.3552 22.638 18.5299 22.5732C20.1244 21.9826 21.7317 21.3652 23.4073 21.0847C24.7273 20.8639 26.109 20.8223 27.4211 21.0864C29.4806 21.5017 31.4894 22.2136 33.3981 23.0978C34.6606 23.6827 35.8137 24.5203 36.8501 25.454C37.5511 26.085 38.0373 26.9294 38.5411 27.73C38.9047 28.3075 39.9578 29.1275 39.4414 29.5707C37.5329 31.2089 34.8199 31.552 32.6388 32.7958M8.62187 33.9145C8.04665 33.5054 7.25288 33.2999 6.89627 32.6883C6.60567 32.1892 6.72975 31.5065 6.89599 30.9528C6.99774 30.6137 7.31353 30.3275 7.64224 30.204C7.88977 30.1113 8.31436 30.1363 8.41453 30.3827C8.63202 30.9181 8.50215 31.5463 8.4199 32.1193C8.39431 32.2979 8.04569 32.3844 8.10274 32.5557C8.26464 33.0411 8.8008 33.3312 8.98345 33.8092M17.8277 23.751C17.5749 23.6913 17.0758 23.8341 17.0692 23.5723C17.0628 23.3129 17.5678 23.3242 17.8185 23.3828M4.53388 11.0669C5.59052 10.3625 6.55922 9.501 7.70369 8.95419C9.07235 8.30098 10.5999 8.05232 12.0102 7.49641C12.8375 7.17037 13.5452 6.54562 14.4032 6.31347C14.6229 6.25373 14.7544 6.62471 14.9707 6.69584C15.1591 6.75786 15.378 6.76127 15.5652 6.69584C15.7737 6.62244 15.8828 6.34476 16.0989 6.30038C16.7789 6.15983 17.5223 6.39026 18.1764 6.15584C18.5717 6.01415 18.6708 5.42241 19.0507 5.2426C19.2108 5.16693 19.3208 5.54643 19.4971 5.53221C19.7161 5.514 19.8293 5.20446 20.0449 5.16179C20.6028 5.0514 21.1859 5.00648 21.7488 5.08671C22.1484 5.14361 22.4676 5.48442 22.8635 5.56294C23.4222 5.6739 24.0002 5.64661 24.5695 5.64661C24.9512 5.64661 25.3427 5.66195 25.7116 5.56294C25.9244 5.50604 26.0405 5.19366 26.2606 5.19252C26.4797 5.19139 26.5899 5.55784 26.8089 5.55784C27.2085 5.55784 27.5522 5.19252 27.9518 5.19252C28.1708 5.19252 28.2913 5.49127 28.5001 5.55784C28.689 5.61815 28.9074 5.62327 29.0945 5.55784C29.303 5.48444 29.4157 5.22212 29.6283 5.16238C29.9947 5.05939 30.399 4.98998 30.7671 5.08671C31.7461 5.34503 32.6133 5.9493 33.5923 6.20706C33.9604 6.30436 34.365 6.23607 34.731 6.13194C34.9446 6.07106 35.0469 5.7695 35.2655 5.73138C35.8303 5.63237 36.4293 5.59596 36.9853 5.73707C37.1726 5.7843 37.1106 6.14504 37.2787 6.2412C38.9092 7.17151 40.6639 7.86513 42.3067 8.77325C43.0034 9.15846 43.5883 9.72917 44.2847 10.1144C44.4559 10.2094 44.6703 10.1901 44.8655 10.1901C45.2464 10.1901 45.6609 10.2777 46.0057 10.1144C46.4087 9.92376 46.742 9.57096 46.977 9.18917C47.375 8.54221 47.7187 7.83553 47.8676 7.089C47.9124 6.86425 47.5165 6.72997 47.5132 6.50066C47.51 6.27932 47.923 6.13993 47.8507 5.9311C47.7065 5.5146 47.3571 5.16067 46.975 4.94616C46.1438 4.48015 45.167 4.34019 44.3018 3.94246C43.1408 3.40817 42.1422 2.48238 40.9082 2.1552C38.313 1.46728 35.6142 1.25562 32.9502 0.93243C29.7902 0.549494 26.626 0.0271462 23.4433 0.0362502C21.4395 0.0413712 19.4676 0.570567 17.5043 0.974557C15.1857 1.45252 12.8391 1.88039 10.609 2.67926C8.0917 3.58056 5.6589 4.73959 3.32594 6.05227C2.69587 6.40676 2.0702 6.93993 1.8225 7.62386C1.52181 8.45346 1.50011 9.44295 1.79646 10.2748C1.9817 10.7943 2.59176 11.1061 3.11788 11.2581" fill="black"/>
</svg>
